<?xml version="1.0" encoding="UTF-8"?>
<svg version="1.1" xmlns="http://www.w3.org/2000/svg" width="524" height="540">
<path d="M0 0 C1.19592773 -0.04350586 1.19592773 -0.04350586 2.41601562 -0.08789062 C19.71102265 -0.26285957 37.01715693 7.61906354 53.10757446 13.14235687 C55.74460822 14.04632483 58.3833795 14.94516112 61.02214432 15.8440609 C77.1169356 21.32772232 93.18696922 26.88053698 109.19140625 32.62329102 C117.154676 35.46916558 125.14485787 38.16811947 133.31835938 40.35302734 C137.93379597 41.68113821 140.25386155 43.14555071 142.6875 47.3125 C143.69921875 50.73046875 143.69921875 50.73046875 144.375 54.5 C144.72111328 56.34658203 144.72111328 56.34658203 145.07421875 58.23046875 C145.83338196 62.89997187 146.26250541 67.60269436 146.6875 72.3125 C147.3995459 72.37719482 148.1115918 72.44188965 148.84521484 72.50854492 C186.55197093 76.02112855 231.93546361 81.2869813 261.6875 107.3125 C262.35652344 107.81910156 263.02554687 108.32570313 263.71484375 108.84765625 C268.11371738 112.50888645 269.16257255 115.3796987 269.9375 121.0625 C270.02515625 122.17109375 270.1128125 123.2796875 270.203125 124.421875 C270.39993334 127.32751636 270.39993334 127.32751636 272.23828125 128.84375 C273.6875 130.3125 273.6875 130.3125 273.90234375 132.921875 C272.93651231 143.85889576 270.90586569 154.54670136 265.6875 164.3125 C266.49574219 164.34988281 267.30398438 164.38726562 268.13671875 164.42578125 C269.73966797 164.52439453 269.73966797 164.52439453 271.375 164.625 C272.43074219 164.68300781 273.48648437 164.74101562 274.57421875 164.80078125 C277.94645644 165.35506373 279.96604581 166.26762255 282.6875 168.3125 C282.6875 168.9725 282.6875 169.6325 282.6875 170.3125 C279.58186317 171.34771228 277.90460949 171.33656941 274.68359375 171.10644531 C273.65076767 171.03585907 272.61794159 170.96527283 271.55381775 170.89254761 C270.42230789 170.80941315 269.29079803 170.72627869 268.125 170.640625 C265.65958728 170.47053033 263.19417384 170.30044619 260.72875977 170.13037109 C258.7299747 169.98901847 256.73118971 169.84766462 254.73241043 169.70623016 C248.47752521 169.26659444 242.22121854 168.84749924 235.96484375 168.4296875 C235.25200666 168.3819733 234.53916958 168.33425911 233.80473137 168.28509903 C218.2943051 167.2510279 202.77644714 166.4435571 187.25 165.6875 C168.04692307 164.74933274 148.86094133 163.746967 129.6875 162.3125 C128.48053516 169.85603023 128.6875 176.39739629 128.6875 184.3125 C170.7625 185.3025 170.7625 185.3025 213.6875 186.3125 C214.60683305 189.98983219 214.68235581 191.91149538 214.25 195.5625 C214.14816406 196.45453125 214.04632813 197.3465625 213.94140625 198.265625 C213.85761719 198.94109375 213.77382813 199.6165625 213.6875 200.3125 C211.875 200.93359375 211.875 200.93359375 209.6875 201.3125 C207.66829663 200.00843116 205.66825027 198.67426581 203.6875 197.3125 C202.3675 197.3125 201.0475 197.3125 199.6875 197.3125 C209.10169816 205.20649136 209.10169816 205.20649136 220.6875 208.3125 C221.32896973 208.3630957 221.97043945 208.41369141 222.63134766 208.46582031 C227.31393558 208.8262626 231.9962938 209.09376891 236.6875 209.3125 C236.52378906 208.46429688 236.36007812 207.61609375 236.19140625 206.7421875 C235.67801555 203.2479469 235.58899261 199.96622426 235.625 196.4375 C235.63402344 195.28507813 235.64304687 194.13265625 235.65234375 192.9453125 C235.66974609 191.64207031 235.66974609 191.64207031 235.6875 190.3125 C235.3575 190.3125 235.0275 190.3125 234.6875 190.3125 C234.3575 194.9325 234.0275 199.5525 233.6875 204.3125 C228.38053448 207.24826816 225.37919389 207.51365085 219.5078125 206.05078125 C217.6875 205.3125 217.6875 205.3125 216.6875 203.3125 C216.61555131 200.42879667 216.59458292 197.57010336 216.625 194.6875 C216.62951172 193.88570312 216.63402344 193.08390625 216.63867188 192.2578125 C216.65046832 190.27600994 216.66840395 188.29424567 216.6875 186.3125 C220.64465197 186.05844853 224.6029685 185.83848212 228.5625 185.625 C229.69042969 185.55216797 230.81835938 185.47933594 231.98046875 185.40429688 C233.05683594 185.34951172 234.13320313 185.29472656 235.2421875 185.23828125 C236.23718262 185.18067627 237.23217773 185.12307129 238.25732422 185.0637207 C239.46026123 185.18686646 239.46026123 185.18686646 240.6875 185.3125 C244.27973996 190.70085994 242.50084713 198.09532386 241.6875 204.3125 C239.630683 212.88720332 231.13978872 221.55291542 223.76953125 226.12109375 C208.48240626 233.22697116 195.14227897 232.59333979 179.68359375 227.015625 C173.67097235 224.62580187 169.57580308 221.4550944 165.6875 216.3125 C164.78 215.4875 163.8725 214.6625 162.9375 213.8125 C160.6875 211.3125 160.6875 211.3125 160.6875 206.3125 C146.8275 205.3225 146.8275 205.3225 132.6875 204.3125 C132.295625 207.014375 131.90375 209.71625 131.5 212.5 C128.85873724 229.04004804 122.04588671 245.5647888 108.41015625 256.06640625 C94.7165169 264.92177432 79.01071164 266.21786865 63.17578125 263.76953125 C60.57342018 263.11258933 58.16909867 262.32889945 55.6875 261.3125 C54.65882813 260.91224609 54.65882813 260.91224609 53.609375 260.50390625 C39.44942579 254.2322752 30.63145247 242.15161122 24.6875 228.3125 C21.48422281 219.56269228 20.52790149 211.1441736 20.625 201.875 C20.62951172 201.04806641 20.63402344 200.22113281 20.63867188 199.36914062 C20.65034189 197.35022854 20.66827282 195.33135426 20.6875 193.3125 C19.6975 193.6425 18.7075 193.9725 17.6875 194.3125 C15.66920839 194.43154875 13.64676229 194.48771712 11.625 194.5 C10.56152344 194.51417969 9.49804688 194.52835938 8.40234375 194.54296875 C5.6875 194.3125 5.6875 194.3125 3.6875 192.3125 C3.28985737 190.32428687 2.94974651 188.32305661 2.6875 186.3125 C1.44774414 186.14645264 0.20798828 185.98040527 -1.06933594 185.80932617 C-5.72213039 185.18431245 -10.37366927 184.55033859 -15.02490234 183.91381836 C-17.02815759 183.64091066 -19.03173413 183.37034961 -21.03564453 183.10229492 C-52.12765402 178.93860188 -52.12765402 178.93860188 -60.3125 171.3125 C-61.23804688 170.46558594 -62.16359375 169.61867188 -63.1171875 168.74609375 C-68.64399712 163.53477174 -73.54656971 158.03250742 -78 151.875 C-78.63301025 151.00681641 -78.63301025 151.00681641 -79.27880859 150.12109375 C-81.5089261 146.92059136 -83.07587026 144.24731458 -83.3125 140.3125 C-79.4271187 132.70362828 -73.15282112 128.19261796 -65.3125 125.3125 C-65.88097656 124.91160156 -66.44945312 124.51070313 -67.03515625 124.09765625 C-75.76125434 117.67326684 -81.66759021 110.96770802 -84.3125 100.3125 C-84.54324219 100.92996094 -84.77398437 101.54742187 -85.01171875 102.18359375 C-87.32778382 108.1980394 -90.0410473 113.76175649 -93.3125 119.3125 C-94.3025 119.3125 -95.2925 119.3125 -96.3125 119.3125 C-100.01007512 111.83274844 -102.30853587 104.07659469 -104.5625 96.0625 C-104.92601563 94.80953125 -105.28953125 93.5565625 -105.6640625 92.265625 C-106.00695312 91.0590625 -106.34984375 89.8525 -106.703125 88.609375 C-107.01282227 87.51979492 -107.32251953 86.43021484 -107.64160156 85.30761719 C-108.26582872 82.52085636 -108.44817669 80.15380707 -108.3125 77.3125 C-93.17328231 77.04295903 -78.18361064 77.56416857 -63.07720947 78.45544434 C-51.4756161 79.13679981 -39.9377533 79.59875795 -28.3125 79.3125 C-28.20292969 78.52230469 -28.09335938 77.73210937 -27.98046875 76.91796875 C-27.15625103 71.05463133 -26.30269436 65.20195216 -25.35253906 59.35766602 C-24.16209936 52.02953686 -23.07793965 44.69232893 -22.078125 37.3359375 C-21.9692244 36.53755463 -21.86032379 35.73917175 -21.74812317 34.91659546 C-21.19649838 30.8669973 -20.65100741 26.81670061 -20.11401367 22.76513672 C-19.90822565 21.24444106 -19.70225963 19.72376948 -19.49609375 18.203125 C-19.40656433 17.51205658 -19.31703491 16.82098816 -19.22479248 16.10897827 C-17.65534111 4.65534111 -17.65534111 4.65534111 -14.3125 1.3125 C-9.66623554 -0.06449998 -4.80766197 0.0553453 0 0 Z M18.6875 12.3125 C16.86946751 14.13053249 17.42841634 16.79565969 17.375 19.25 C17.41243699 25.32727133 18.19261194 30.9447363 19.5 36.875 C19.6652417 37.63611084 19.8304834 38.39722168 20.00073242 39.18139648 C20.97363803 43.30239574 21.90463807 47.01975388 24.6875 50.3125 C27.60889949 51.59154582 27.60889949 51.59154582 31.1875 52.25 C31.86458008 52.40130371 32.54166016 52.55260742 33.23925781 52.70849609 C34.80410225 53.0559746 36.3710331 53.39413233 37.93945312 53.72509766 C41.07603997 54.39555145 44.2016113 55.10828085 47.328125 55.82421875 C66.79119781 60.82132673 66.79119781 60.82132673 86.6875 62.3125 C87.30811265 45.13482212 87.30811265 45.13482212 81.6875 29.3125 C78.98977425 27.77766124 78.98977425 27.77766124 75.75390625 26.96875 C74.55677002 26.61240479 73.35963379 26.25605957 72.1262207 25.88891602 C70.83429389 25.52958262 69.54221711 25.17078805 68.25 24.8125 C66.93190419 24.42916716 65.61444079 24.04365328 64.29760742 23.65600586 C61.66445295 22.88399836 59.0282648 22.12419991 56.38867188 21.37451172 C53.13767858 20.44167393 49.90267424 19.47274452 46.671875 18.47265625 C45.78685303 18.199375 44.90183105 17.92609375 43.98999023 17.64453125 C42.39552882 17.1517631 40.80127104 16.65833524 39.20727539 16.1640625 C32.48829097 14.13659527 25.73407933 12.3125 18.6875 12.3125 Z M-7.3125 13.3125 C-8.9889528 21.18708986 -10.26006222 29.09953189 -11.4375 37.0625 C-11.61925781 38.25488281 -11.80101562 39.44726562 -11.98828125 40.67578125 C-12.15972656 41.82949219 -12.33117187 42.98320312 -12.5078125 44.171875 C-12.66266113 45.20795898 -12.81750977 46.24404297 -12.97705078 47.31152344 C-13.31541373 50.33856666 -13.37100047 53.26933957 -13.3125 56.3125 C-11.395912 56.33962153 -9.4792127 56.35895097 -7.5625 56.375 C-6.49515625 56.38660156 -5.4278125 56.39820313 -4.328125 56.41015625 C-1.75452917 56.32681442 0.23206491 55.98195353 2.6875 55.3125 C4.24429492 46.68742543 2.95519026 38.91830508 1.375 30.375 C1.14543001 29.04901024 0.91690746 27.72283869 0.68945312 26.39648438 C-0.36305087 19.49576829 -0.36305087 19.49576829 -3.3125 13.3125 C-4.6325 13.3125 -5.9525 13.3125 -7.3125 13.3125 Z M91.6875 33.3125 C91.37687666 41.31967938 91.51937634 49.03077195 92.875 56.9375 C93.09542969 58.22914063 93.31585938 59.52078125 93.54296875 60.8515625 C94.87078143 64.86672302 96.43552018 66.65762118 99.6875 69.3125 C103.1422412 70.4640804 106.39652058 70.67279992 110 70.875 C110.72823975 70.9174585 111.45647949 70.95991699 112.20678711 71.00366211 C122.02607436 71.51281034 131.85868305 71.40164094 141.6875 71.3125 C141.43035478 68.62306352 141.1572388 65.93682453 140.875 63.25 C140.80474609 62.49783203 140.73449219 61.74566406 140.66210938 60.97070312 C140.58154297 60.22626953 140.50097656 59.48183594 140.41796875 58.71484375 C140.34989014 58.03929443 140.28181152 57.36374512 140.21166992 56.66772461 C139.43165714 53.16293498 138.45892067 50.45945056 136.6875 47.3125 C134.01864803 45.84669471 131.94165181 44.94747321 129.08984375 44.07421875 C128.34094376 43.82251419 127.59204376 43.57080963 126.82044983 43.31147766 C124.4294843 42.515576 122.02813179 41.75826154 119.625 41 C118.03633352 40.4730364 116.44843204 39.94376057 114.86132812 39.41210938 C107.20294805 36.8786788 99.66186193 34.63754503 91.6875 33.3125 Z M135.6875 86.3125 C139.22081719 88.6680448 142.10473393 88.83577782 146.2043457 89.20654297 C154.90451108 90.11564319 163.37561302 91.69461856 171.9319973 93.48709488 C174.49183311 94.02328431 177.05341721 94.55033509 179.61555481 95.07540894 C185.03702535 96.18816216 190.45608683 97.31237035 195.875 98.4375 C202.20132408 99.74976897 208.52859713 101.0572106 214.85781288 102.35546494 C217.37259028 102.87346532 219.88578616 103.39868545 222.39897156 103.92434692 C223.94063628 104.24172484 225.48236565 104.55878895 227.02416992 104.87548828 C228.05981331 105.09519287 228.05981331 105.09519287 229.11637878 105.31933594 C233.03421899 106.11532978 236.69216515 106.45483557 240.6875 106.3125 C238.01135888 104.52840592 236.53203686 103.86059106 233.5234375 103.0859375 C232.66516357 102.86268799 231.80688965 102.63943848 230.92260742 102.40942383 C229.97877197 102.17118896 229.03493652 101.9329541 228.0625 101.6875 C227.06774658 101.43315186 226.07299316 101.17880371 225.0480957 100.91674805 C221.59672628 100.03985714 218.14238759 99.17542247 214.6875 98.3125 C213.34583685 97.97521315 212.00420363 97.63780718 210.66259766 97.30029297 C187.36210183 91.38212834 187.36210183 91.38212834 163.6875 87.3125 C162.72457031 87.18359375 161.76164062 87.0546875 160.76953125 86.921875 C152.44682547 85.9875683 144.04939827 86.22427364 135.6875 86.3125 Z M117.6875 87.3125 C117.6875 87.6425 117.6875 87.9725 117.6875 88.3125 C122.6375 88.3125 127.5875 88.3125 132.6875 88.3125 C132.6875 87.9825 132.6875 87.6525 132.6875 87.3125 C127.7375 87.3125 122.7875 87.3125 117.6875 87.3125 Z M109.6875 88.3125 C109.6875 88.6425 109.6875 88.9725 109.6875 89.3125 C112.3275 89.3125 114.9675 89.3125 117.6875 89.3125 C117.6875 88.9825 117.6875 88.6525 117.6875 88.3125 C115.0475 88.3125 112.4075 88.3125 109.6875 88.3125 Z M100.6875 89.3125 C100.6875 89.6425 100.6875 89.9725 100.6875 90.3125 C102.3375 90.3125 103.9875 90.3125 105.6875 90.3125 C105.6875 89.9825 105.6875 89.6525 105.6875 89.3125 C104.0375 89.3125 102.3875 89.3125 100.6875 89.3125 Z M89.6875 90.3125 C89.6875 90.6425 89.6875 90.9725 89.6875 91.3125 C91.9975 91.3125 94.3075 91.3125 96.6875 91.3125 C96.6875 90.9825 96.6875 90.6525 96.6875 90.3125 C94.3775 90.3125 92.0675 90.3125 89.6875 90.3125 Z M20.6875 120.3125 C15.73025641 127.17262095 13.11896977 134.24504948 11 142.375 C10.70601318 143.46538574 10.41202637 144.55577148 10.10913086 145.67919922 C7.16829432 156.83024728 4.6875 167.73268899 4.6875 179.3125 C11.2875 179.9725 17.8875 180.6325 24.6875 181.3125 C26.04875 179.146875 27.41 176.98125 28.8125 174.75 C38.09623036 160.27766824 48.55133126 151.94103529 65.609375 147.5625 C74.65201683 145.72331861 82.93325702 145.93037132 91.94921875 147.77734375 C95.1813654 148.40901863 98.42515125 148.86598864 101.6875 149.3125 C99.52117516 139.27094722 97.00163767 130.23465745 91.6875 121.3125 C91.32140625 120.67570312 90.9553125 120.03890625 90.578125 119.3828125 C86.73469023 113.78476621 79.65389026 112.22361312 73.3684082 110.77978516 C57.54914921 108.02247146 32.50642367 107.56316099 20.6875 120.3125 Z M142.6875 115.3125 C137.15736941 124.270967 137.26461623 135.6014525 139.625 145.625 C140.63271375 148.01106012 141.11541562 149.07767512 143.55101871 150.0774231 C144.28369685 150.21187836 145.01637499 150.34633362 145.77125549 150.48486328 C146.57871782 150.63465637 147.38618015 150.78444946 148.21811104 150.93878174 C151.94241939 151.50241998 155.65732309 151.92083174 159.40991211 152.2421875 C160.23087372 152.31729553 161.05183533 152.39240356 161.89767456 152.4697876 C164.58627115 152.71446102 167.27552079 152.95095674 169.96484375 153.1875 C171.85947178 153.35864851 173.75404803 153.53037116 175.64857483 153.70263672 C180.62733392 154.15404601 185.60666548 154.59877759 190.58618164 155.04174805 C198.52150473 155.74876767 206.45591292 156.46597306 214.39032173 157.1831665 C217.13153046 157.42999807 219.87297915 157.67399324 222.61448669 157.91748047 C231.66316605 158.7270471 240.69634144 159.59442261 249.71481991 160.69680786 C254.06344552 161.20930196 258.31067076 161.56150122 262.6875 161.3125 C266.17532711 157.55230461 266.84803663 152.27005885 267.875 147.375 C268.05224609 146.58931641 268.22949219 145.80363281 268.41210938 144.99414062 C269.8546237 138.69440197 269.8546237 138.69440197 269.6875 132.3125 C266.16260366 129.76100095 262.68979381 128.57437679 258.5078125 127.48046875 C257.28553955 127.15981445 256.0632666 126.83916016 254.80395508 126.50878906 C253.47379897 126.17122729 252.1433032 125.83500158 250.8125 125.5 C250.12900482 125.32641968 249.44550964 125.15283936 248.74130249 124.97399902 C222.79253577 118.41126686 196.89388911 114.29858017 170.28735352 111.671875 C167.33599431 111.37723948 164.38850264 111.06441049 161.44140625 110.73046875 C150.85394544 109.24895793 150.85394544 109.24895793 142.6875 115.3125 Z M50.6875 178.21875 C43.49175716 185.73195208 39.53406972 194.42687075 39.5625 204.875 C39.55992187 205.82503906 39.55734375 206.77507812 39.5546875 207.75390625 C39.57979006 210.4337438 39.57979006 210.4337438 40.6875 213.3125 C43.1625 212.8175 43.1625 212.8175 45.6875 212.3125 C45.83445312 211.05695313 45.98140625 209.80140625 46.1328125 208.5078125 C48.72827038 188.37542273 48.72827038 188.37542273 56.609375 181.6796875 C62.74285315 177.51938256 69.27550666 175.67353506 76.6875 176.3125 C83.90306395 177.95590247 90.15548283 180.66012126 94.453125 186.859375 C95.93579513 189.31201625 97.34537484 191.78065217 98.6875 194.3125 C98.1925 194.8075 98.1925 194.8075 97.6875 195.3125 C97.26339844 194.85359375 96.83929688 194.3946875 96.40234375 193.921875 C90.53022584 187.77873626 85.03678018 183.71621926 76.375 183.0625 C69.91464 183.50049051 66.2489397 185.39061013 61.875 190 C57.17853977 195.77053857 56.21017562 201.70116885 56.44921875 209.0234375 C57.35091889 217.68567162 60.99853823 222.85369212 67.6875 228.3125 C72.50932282 231.59544319 77.00091251 232.17893277 82.6875 231.3125 C89.74260725 228.39314528 95.02851594 223.06324657 98.125 216.0625 C98.82109749 213.12717987 98.82109749 213.12717987 98.6875 209.3125 C99.3475 209.3125 100.0075 209.3125 100.6875 209.3125 C99.54976471 218.39740117 97.43709779 225.47768407 90.9375 232.125 C87.03905949 234.74895034 83.04269798 236.58009902 78.6875 238.3125 C79.3475 239.6325 80.0075 240.9525 80.6875 242.3125 C86.77371731 242.28432307 91.03598197 241.23645693 95.765625 237.3203125 C105.29683219 227.36291312 107.27647412 217.22464567 107 204.03125 C106.45356465 192.53789312 101.00519189 184.1484273 92.75 176.5 C80.18637501 166.1326478 62.39794833 167.05722894 50.6875 178.21875 Z M136.6875 189.3125 C137.0175 190.6325 137.3475 191.9525 137.6875 193.3125 C141.90707643 195.42228822 147.48904459 194.49742875 152.125 194.5 C153.86233398 194.51836914 153.86233398 194.51836914 155.63476562 194.53710938 C156.74400391 194.53904297 157.85324219 194.54097656 158.99609375 194.54296875 C160.52447876 194.54913208 160.52447876 194.54913208 162.08374023 194.55541992 C164.92318237 194.49844162 164.92318237 194.49844162 167.6875 192.3125 C167.3575 191.3225 167.0275 190.3325 166.6875 189.3125 C156.7875 189.3125 146.8875 189.3125 136.6875 189.3125 Z " fill="#FEFEFE" transform="translate(222.3125,198.6875)"/>
<path d="M0 0 C8.14893875 2.99606607 8.14893875 2.99606607 10.85742188 5.30126953 C13.69967447 7.20542957 15.99490202 7.5168813 19.375 8.0078125 C20.61838135 8.19762695 21.8617627 8.38744141 23.14282227 8.58300781 C24.12449875 8.72639587 24.12449875 8.72639587 25.12600708 8.87268066 C57.71741635 13.68489435 88.3977026 23.55560691 112.42578125 47.1796875 C114.54312453 49.25977547 116.66807889 51.17506223 118.96484375 53.046875 C131.20107327 63.42367748 139.76350673 77.72701672 147.08984375 91.796875 C147.41227051 92.41433594 147.73469727 93.03179687 148.06689453 93.66796875 C155.42424201 107.98996384 159.83419934 122.8842843 162.52734375 138.734375 C162.70354248 139.77134521 162.87974121 140.80831543 163.0612793 141.87670898 C164.32117732 149.91196986 164.32117732 149.91196986 163.08984375 153.796875 C160.23543788 153.65490984 157.38138179 153.50841674 154.52734375 153.359375 C153.72748047 153.32005859 152.92761719 153.28074219 152.10351562 153.24023438 C139.00420833 152.54516909 139.00420833 152.54516909 136.26171875 150.30078125 C134.51706934 146.573047 134.00323254 142.77585489 133.33984375 138.734375 C126.93273972 103.92170338 105.77751018 71.22067559 76.71362305 50.87402344 C59.75958926 39.43143125 40.47964977 30.54443751 20.08984375 27.796875 C18.54103516 27.56484375 18.54103516 27.56484375 16.9609375 27.328125 C13.81363109 27.53587857 13.81363109 27.53587857 11.6328125 30.5078125 C10.82942514 31.71725249 10.04514423 32.93953626 9.27734375 34.171875 C8.42162227 35.45644005 7.56086967 36.73766671 6.6953125 38.015625 C6.26524902 38.65371094 5.83518555 39.29179687 5.39208984 39.94921875 C2.38212665 44.2198227 -1.09603155 48.22935319 -4.91015625 51.796875 C-5.57015625 51.796875 -6.23015625 51.796875 -6.91015625 51.796875 C-6.91015625 52.456875 -6.91015625 53.116875 -6.91015625 53.796875 C-7.57015625 53.796875 -8.23015625 53.796875 -8.91015625 53.796875 C-9.24015625 54.786875 -9.57015625 55.776875 -9.91015625 56.796875 C-11.56284396 58.29801868 -13.28222311 59.72661167 -15.03515625 61.109375 C-16.02386719 61.89828125 -17.01257813 62.6871875 -18.03125 63.5 C-18.98128906 64.25796875 -19.93132812 65.0159375 -20.91015625 65.796875 C-23.26297494 67.77565585 -25.58688043 69.78336929 -27.91015625 71.796875 C-31.28756515 69.14755588 -32.13258514 65.71145638 -33.29296875 61.75390625 C-33.50872559 61.04518372 -33.72448242 60.33646118 -33.94677734 59.60626221 C-34.65271774 57.27679777 -35.34429155 54.94335089 -36.03515625 52.609375 C-36.52019018 50.99456592 -37.00570977 49.37990263 -37.49169922 47.76538086 C-40.77119938 36.8252463 -43.93820938 25.85249068 -47.03515625 14.859375 C-47.22692444 14.17888092 -47.41869263 13.49838684 -47.61627197 12.79727173 C-50.94774968 0.94021841 -50.94774968 0.94021841 -51.91015625 -4.203125 C-39.96124334 -10.17758145 -12.75725326 -4.14521395 0 0 Z " fill="#4EB8F8" transform="translate(236.91015625,112.203125)"/>
<path d="M0 0 C3 1 3 1 4.2109375 2.85546875 C4.78714844 4.00982422 4.78714844 4.00982422 5.375 5.1875 C12.78053551 18.99664563 27.06668624 27.68330882 41.83984375 32.25390625 C52.31447007 35.13575776 62.62089989 37.08531052 73.46875 37.65625 C76 38 76 38 79 40 C79.94458008 42.20336914 79.94458008 42.20336914 80.76953125 45.03515625 C81.25691772 46.67967773 81.25691772 46.67967773 81.75415039 48.35742188 C82.27803345 50.19143555 82.27803345 50.19143555 82.8125 52.0625 C83.18863941 53.35372918 83.56553566 54.64473809 83.94311523 55.93554688 C84.80325537 58.88615004 85.65482413 61.83909299 86.50195312 64.79345703 C87.897966 69.65714982 89.31634818 74.51416588 90.73616028 79.37095642 C92.03005208 83.80358379 93.31555122 88.23861561 94.59896851 92.67428589 C95.24030835 94.88792704 95.88387696 97.10092372 96.5296936 99.31326294 C97.44571535 102.45660896 98.35111323 105.60283282 99.25390625 108.75 C99.67044464 110.16864601 99.67044464 110.16864601 100.09539795 111.61595154 C102.64889826 120.59670147 102.64889826 120.59670147 102 125 C100.64233398 126.67163086 100.64233398 126.67163086 98.74609375 127.96484375 C98.05580078 128.45533203 97.36550781 128.94582031 96.65429688 129.45117188 C95.92275391 129.94166016 95.19121094 130.43214844 94.4375 130.9375 C86.7165284 136.27083354 79.75964784 141.35613321 75.6875 150.0625 C75.21699219 151.04347656 74.74648437 152.02445313 74.26171875 153.03515625 C69.13662119 165.07834216 69.1132495 176.49148176 72 189.0625 C72.28617188 190.3609082 72.28617188 190.3609082 72.578125 191.68554688 C73.04369179 193.79223661 73.52064561 195.89640464 74 198 C72.68 198 71.36 198 70 198 C69.55011719 197.05382812 69.10023438 196.10765625 68.63671875 195.1328125 C64.10586954 185.76306429 59.03247762 176.88114366 53.515625 168.05859375 C53.09345703 167.37522949 52.67128906 166.69186523 52.23632812 165.98779297 C51.42285857 164.67988042 50.59372687 163.38155849 49.74804688 162.09423828 C48.06288765 159.41691627 46.99683301 157.53997257 47.015625 154.3359375 C48.1961767 151.53446958 49.64559987 149.8164242 51.75 147.625 C55.19781255 143.92294228 58.15499906 140.17859513 61 136 C58.43724147 136.95764655 55.87478711 137.9160936 53.3125 138.875 C52.59126953 139.14441406 51.87003906 139.41382813 51.12695312 139.69140625 C47.40053517 141.08668603 43.68675345 142.50202917 40 144 C36.65406857 138.68636795 34.57857006 133.10723139 32.375 127.25 C31.76398438 125.67992187 31.76398438 125.67992187 31.140625 124.078125 C28.83208673 117.96279183 27.39620727 112.53058885 27 106 C29.20200532 104.67578036 31.41061826 103.36573271 33.625 102.0625 C34.24246094 101.68931641 34.85992187 101.31613281 35.49609375 100.93164062 C39.31547865 98.70031576 42.4952056 97.31067548 47 97 C49.875 97.9375 49.875 97.9375 52 99 C51.37466625 96.47636012 51.37466625 96.47636012 50 94 C45.79114761 92.62840006 41.59742354 93.04424 37.25 93.375 C36.54423828 93.42390381 35.83847656 93.47280762 35.11132812 93.52319336 C30.05560598 93.88589152 25.02891104 94.37138612 20 95 C16.54147299 90.29283573 15.82024359 85.30655276 14.8125 79.6875 C14.63525391 78.77548828 14.45800781 77.86347656 14.27539062 76.92382812 C13.27546854 71.53814741 12.62243574 66.47777654 13 61 C15.27639147 58.72360853 16.22894883 58.58043316 19.3125 58 C22.71953844 57.29774409 25.86592041 56.56703979 29 55 C29.33 54.34 29.66 53.68 30 53 C24.06 52.34 18.12 51.68 12 51 C8.62073745 41.98863321 8.62073745 41.98863321 7.5 37.49609375 C7.2539502 36.51479492 7.00790039 35.53349609 6.75439453 34.52246094 C6.50544434 33.50442383 6.25649414 32.48638672 6 31.4375 C5.73944824 30.38208008 5.47889648 29.32666016 5.21044922 28.23925781 C0 6.90867583 0 6.90867583 0 0 Z M56.8359375 57.55859375 C55.61777344 57.99365234 55.61777344 57.99365234 54.375 58.4375 C52.93125 58.953125 51.4875 59.46875 50 60 C49.34 63.96 48.68 67.92 48 72 C49.19625 71.814375 50.3925 71.62875 51.625 71.4375 C55.27895263 70.87050735 58.376617 71.29920243 62 72 C61.88658363 69.68690295 61.75896193 67.37449815 61.625 65.0625 C61.55539063 63.77472656 61.48578125 62.48695313 61.4140625 61.16015625 C61.27742188 60.11730469 61.14078125 59.07445312 61 58 C59.02767749 56.74026972 59.02767749 56.74026972 56.8359375 57.55859375 Z M81 109 C81 110.32 81 111.64 81 113 C82.65 112.67 84.3 112.34 86 112 C85.34 110.68 84.68 109.36 84 108 C82.7763932 107.9254644 82.7763932 107.9254644 81 109 Z " fill="#42B4F8" transform="translate(94,69)"/>
<path d="M0 0 C0.66 0.33 1.32 0.66 2 1 C2.74609375 3.78125 2.74609375 3.78125 3.4375 7.5 C3.56527832 8.16926514 3.69305664 8.83853027 3.82470703 9.52807617 C4.4911732 13.05952909 5.10438069 16.59779697 5.68359375 20.14453125 C10.34219782 48.50691433 20.7225415 73.603044 39 96 C39.47630859 96.58604004 39.95261719 97.17208008 40.44335938 97.77587891 C66.21081764 129.25336508 103.95099895 151.7890393 144.70703125 156.70703125 C149.47868986 157.13155604 154.25365806 157.43723836 159.0390625 157.65625 C161.99769216 157.99973207 163.63143275 158.2157489 166 160 C167.484375 162.6796875 167.484375 162.6796875 168.75 165.875 C169.17796875 166.92429687 169.6059375 167.97359375 170.046875 169.0546875 C171 172 171 172 171 176 C123.30080644 174.44880671 81.26944663 156.99643599 47 124 C46.22527344 123.2884375 45.45054688 122.576875 44.65234375 121.84375 C15.59242124 94.37264159 1.0554268 52.26905954 -0.625 13.125 C-0.6765625 12.08085937 -0.728125 11.03671875 -0.78125 9.9609375 C-0.82507813 8.96578125 -0.86890625 7.970625 -0.9140625 6.9453125 C-0.9548291 6.04312988 -0.9955957 5.14094727 -1.03759766 4.21142578 C-1 2 -1 2 0 0 Z " fill="#FEFEFE" transform="translate(75,280)"/>
<path d="M0 0 C0.66 0.33 1.32 0.66 2 1 C1.57709487 4.59469361 1.14911002 8.1652975 0.51245117 11.72924805 C-1.06489887 20.72065002 -1.35969624 29.53089005 -1.3125 38.625 C-1.31034485 39.37323029 -1.3081897 40.12146057 -1.30596924 40.8923645 C-1.12309992 80.50999757 13.13773406 115.5734026 41.3034668 143.67431641 C64.08413482 165.73755399 92.63658589 178.35390641 124.03417969 181.83666992 C129.61818519 182.55169502 129.61818519 182.55169502 131.48046875 184.73828125 C132.08698867 187.37869502 132.50255435 189.92493134 132.75 192.625 C132.84796875 193.58664062 132.9459375 194.54828125 133.046875 195.5390625 C133 198 133 198 131 200 C101.87359365 201.71331802 69.35151337 184.53969082 48 166 C44.08642571 162.51347873 40.26303956 158.93615252 36.46362305 155.32617188 C35.04606622 154.04174007 33.5327972 152.86546573 32.01953125 151.6953125 C28.12108371 148.4789348 25.47996062 144.42121963 22.6875 140.25 C22.12281006 139.41307617 21.55812012 138.57615234 20.97631836 137.71386719 C-3.64213261 100.6270574 -12.84663346 56.55021263 -4.01171875 12.734375 C-1.52699386 1.52699386 -1.52699386 1.52699386 0 0 Z " fill="#74CEFC" transform="translate(101,225)"/>
<path d="M0 0 C31.04647459 -0.5172423 31.04647459 -0.5172423 44 5 C44.99 5.33 45.98 5.66 47 6 C48.2065625 6.495 48.2065625 6.495 49.4375 7 C51.88395902 8.02057622 51.88395902 8.02057622 54.0625 8.5 C56.22848064 9.05896274 58.03315788 9.94633458 60 11 C59.71125 11.78375 59.4225 12.5675 59.125 13.375 C57.96794166 16.71956403 57.96794166 16.71956403 57.73828125 19.16796875 C55.63246342 35.93246656 38.70119164 49.6009232 26.36962891 59.74047852 C24.86437097 60.97488609 24.86437097 60.97488609 24 63 C23.34 63 22.68 63 22 63 C21.566875 64.4540625 21.566875 64.4540625 21.125 65.9375 C20 69 20 69 18 70 C18.061875 69.2575 18.12375 68.515 18.1875 67.75 C18.27345092 65.00191886 18.27345092 65.00191886 16.64453125 63.40234375 C14.20247856 59.83497462 13.50098336 55.98111136 12.5 51.8125 C10.93086823 45.42967688 9.15681889 39.20994619 7 33 C4.87618279 26.69657098 2.76146608 20.41676928 1 14 C0.608125 12.845 0.21625 11.69 -0.1875 10.5 C-1.08970118 6.61359492 -0.6545141 3.89923291 0 0 Z " fill="#44B6FB" transform="translate(190,110)"/>
<path d="M0 0 C2.26343735 0.88898236 4.4490566 1.81606304 6.6171875 2.9140625 C6.6171875 3.5740625 6.6171875 4.2340625 6.6171875 4.9140625 C6.07916504 4.71635254 5.54114258 4.51864258 4.98681641 4.31494141 C-0.64330166 2.33076417 -6.09989058 1.09398909 -12.0078125 0.2890625 C-12.89428467 0.16426514 -13.78075684 0.03946777 -14.6940918 -0.08911133 C-25.21248773 -1.47024078 -35.78623072 -1.82258705 -46.3828125 -2.0859375 C-46.56156621 3.50815577 -46.56156621 3.50815577 -45.0078125 8.7890625 C-43.90605187 11.47715441 -43.07856107 14.0033076 -42.5078125 16.8515625 C-40.48892958 26.60666904 -37.38023381 36.24610872 -34.1328125 45.65625 C-32.76659898 49.76912194 -31.57122882 53.93655164 -30.34765625 58.09375 C-29.46387419 61.06927563 -29.46387419 61.06927563 -27.3828125 63.9140625 C-27.3828125 64.9040625 -27.3828125 65.8940625 -27.3828125 66.9140625 C-26.3928125 64.9340625 -25.4028125 62.9540625 -24.3828125 60.9140625 C-23.7228125 60.9140625 -23.0628125 60.9140625 -22.3828125 60.9140625 C-22.11799072 60.31803223 -21.85316895 59.72200195 -21.58032227 59.10791016 C-20.34061867 56.83676306 -19.14022049 55.52918706 -17.22265625 53.8125 C-16.28558838 52.96099365 -16.28558838 52.96099365 -15.32958984 52.09228516 C-14.66652832 51.49722168 -14.0034668 50.9021582 -13.3203125 50.2890625 C-2.28965266 40.17871993 7.42348667 30.6431581 11.6171875 15.9140625 C11.9471875 15.9140625 12.2771875 15.9140625 12.6171875 15.9140625 C12.6171875 18.58072917 12.6171875 21.24739583 12.6171875 23.9140625 C13.56980469 23.90246094 14.52242188 23.89085937 15.50390625 23.87890625 C16.75816406 23.86988281 18.01242188 23.86085937 19.3046875 23.8515625 C20.54605469 23.83996094 21.78742188 23.82835937 23.06640625 23.81640625 C26.07954204 23.89927577 28.69994089 24.20566801 31.6171875 24.9140625 C31.6171875 25.5740625 31.6171875 26.2340625 31.6171875 26.9140625 C32.23207031 26.95144531 32.84695313 26.98882812 33.48046875 27.02734375 C34.28871094 27.09308594 35.09695313 27.15882813 35.9296875 27.2265625 C37.13044922 27.31357422 37.13044922 27.31357422 38.35546875 27.40234375 C41.05214107 28.01247168 41.7322918 28.9611551 43.6171875 30.9140625 C45.93193855 31.92548057 45.93193855 31.92548057 48.5546875 32.7265625 C74.0741545 41.65670364 97.51867835 60.66512731 112.6171875 82.9140625 C113.01969727 83.49881348 113.42220703 84.08356445 113.83691406 84.68603516 C127.89358973 105.12096737 127.89358973 105.12096737 130.90625 116.48046875 C131.61967285 118.92257003 132.56515156 121.10037444 133.6171875 123.4140625 C136.25763616 129.72685929 137.01054218 136.40894356 138.00390625 143.1328125 C138.39133188 146.71089211 138.39133188 146.71089211 139.6171875 148.9140625 C144.08343736 150.2235843 148.8065119 150.24017213 153.4296875 150.4765625 C154.61208008 150.54133789 154.61208008 150.54133789 155.81835938 150.60742188 C157.75112965 150.71284571 159.68413776 150.81389344 161.6171875 150.9140625 C159.54146546 137.51958134 157.12575017 124.7134471 152.6171875 111.9140625 C152.20339844 110.66882813 151.78960937 109.42359375 151.36328125 108.140625 C149.25022568 101.92731426 146.96154708 96.19467572 143.53515625 90.5859375 C142.6171875 88.9140625 142.6171875 88.9140625 142.6171875 86.9140625 C141.9571875 86.9140625 141.2971875 86.9140625 140.6171875 86.9140625 C139.9984375 85.3671875 139.9984375 85.3671875 139.3671875 83.7890625 C136.6723822 77.33617232 136.6723822 77.33617232 131.6171875 72.9140625 C130.66539636 71.17458215 129.71427431 69.43472458 128.76953125 67.69140625 C127.1608561 65.21022932 124.93234273 63.71473879 122.6171875 61.9140625 C122.6171875 60.9240625 122.6171875 59.9340625 122.6171875 58.9140625 C121.72386719 58.77484375 121.72386719 58.77484375 120.8125 58.6328125 C118.08729854 57.74057572 117.257895 56.6500338 115.4921875 54.4140625 C108.5689778 46.20008489 100.87308394 40.12301203 91.625 34.68359375 C89.29384597 33.31214859 87.09097514 31.88228628 84.8671875 30.3515625 C75.93663181 24.75330371 64.98797458 20.61110039 54.6171875 18.9140625 C54.6171875 18.2540625 54.6171875 17.5940625 54.6171875 16.9140625 C46.41231344 15.36777932 38.18422904 14.04045285 29.9296875 12.7890625 C28.73923828 12.60730469 27.54878906 12.42554687 26.32226562 12.23828125 C23.42078177 11.79548452 20.51909029 11.35410382 17.6171875 10.9140625 C18.82617188 9.38867188 18.82617188 9.38867188 20.6171875 7.9140625 C22.76757812 7.86132812 22.76757812 7.86132812 25.2734375 8.3203125 C26.20365723 8.48426514 27.13387695 8.64821777 28.09228516 8.81713867 C29.09050293 9.01412354 30.0887207 9.2111084 31.1171875 9.4140625 C32.15020996 9.60911377 33.18323242 9.80416504 34.24755859 10.00512695 C37.37750583 10.61248404 40.49792544 11.25416034 43.6171875 11.9140625 C44.47602539 12.09501465 45.33486328 12.2759668 46.21972656 12.46240234 C71.17612816 17.91876542 94.66025941 29.311578 112.953125 47.296875 C115.07046828 49.37696297 117.19542264 51.29224973 119.4921875 53.1640625 C131.72841702 63.54086498 140.29085048 77.84420422 147.6171875 91.9140625 C147.93961426 92.53152344 148.26204102 93.14898437 148.59423828 93.78515625 C155.95158576 108.10715134 160.36154309 123.0014718 163.0546875 138.8515625 C163.23088623 139.88853271 163.40708496 140.92550293 163.58862305 141.99389648 C164.84852107 150.02915736 164.84852107 150.02915736 163.6171875 153.9140625 C160.76278163 153.77209734 157.90872554 153.62560424 155.0546875 153.4765625 C154.25482422 153.43724609 153.45496094 153.39792969 152.63085938 153.35742188 C139.53155208 152.66235659 139.53155208 152.66235659 136.7890625 150.41796875 C135.04441309 146.6902345 134.53057629 142.89304239 133.8671875 138.8515625 C127.46008347 104.03889088 106.30485393 71.33786309 77.2409668 50.99121094 C60.28693301 39.54861875 41.00699352 30.66162501 20.6171875 27.9140625 C19.06837891 27.68203125 19.06837891 27.68203125 17.48828125 27.4453125 C14.34097484 27.65306607 14.34097484 27.65306607 12.16015625 30.625 C11.35676889 31.83443999 10.57248798 33.05672376 9.8046875 34.2890625 C8.94896602 35.57362755 8.08821342 36.85485421 7.22265625 38.1328125 C6.79259277 38.77089844 6.3625293 39.40898437 5.91943359 40.06640625 C2.9094704 44.3370102 -0.5686878 48.34654069 -4.3828125 51.9140625 C-5.0428125 51.9140625 -5.7028125 51.9140625 -6.3828125 51.9140625 C-6.3828125 52.5740625 -6.3828125 53.2340625 -6.3828125 53.9140625 C-7.0428125 53.9140625 -7.7028125 53.9140625 -8.3828125 53.9140625 C-8.7128125 54.9040625 -9.0428125 55.8940625 -9.3828125 56.9140625 C-11.03550021 58.41520618 -12.75487936 59.84379917 -14.5078125 61.2265625 C-15.49652344 62.01546875 -16.48523438 62.804375 -17.50390625 63.6171875 C-18.45394531 64.37515625 -19.40398437 65.133125 -20.3828125 65.9140625 C-22.73563119 67.89284335 -25.05953668 69.90055679 -27.3828125 71.9140625 C-30.7602214 69.26474338 -31.60524139 65.82864388 -32.765625 61.87109375 C-32.98138184 61.16237122 -33.19713867 60.45364868 -33.41943359 59.72344971 C-34.12537399 57.39398527 -34.8169478 55.06053839 -35.5078125 52.7265625 C-35.99284643 51.11175342 -36.47836602 49.49709013 -36.96435547 47.88256836 C-40.24385563 36.9424338 -43.41086563 25.96967818 -46.5078125 14.9765625 C-46.69958069 14.29606842 -46.89134888 13.61557434 -47.08892822 12.91445923 C-50.42040593 1.05740591 -50.42040593 1.05740591 -51.3828125 -4.0859375 C-39.5446743 -10.0050066 -12.62923348 -4.05418812 0 0 Z " fill="#6FE2FE" transform="translate(236.3828125,112.0859375)"/>
<path d="M0 0 C4.4458489 3.55310816 7.64972603 8.17987792 9.8125 13.4375 C9.3175 14.9225 9.3175 14.9225 8.8125 16.4375 C8.31621094 15.90640625 7.81992187 15.3753125 7.30859375 14.828125 C1.1143629 8.38706522 -4.35578156 3.87762969 -13.5 3.1875 C-19.37499564 3.58580479 -23.47468602 5.34566135 -27.5 9.625 C-32.2559626 15.67458443 -32.97944819 22.93953887 -32.1875 30.4375 C-30.87603726 37.53132116 -27.80589861 41.97902885 -22.1875 46.4375 C-17.35072083 49.69706857 -12.87336243 50.31224807 -7.1875 49.4375 C-1.59402533 47.52753304 2.73495303 43.40820465 5.8125 38.4375 C7.08618676 35.15751718 8.026332 31.86491665 8.8125 28.4375 C9.4725 28.4375 10.1325 28.4375 10.8125 28.4375 C11.71336538 36.24499999 8.99450671 41.90254006 4.8125 48.4375 C1.18840351 52.58048278 -3.08903632 55.35176486 -8.1875 57.4375 C-9.1775 57.4375 -10.1675 57.4375 -11.1875 57.4375 C-9.1802092 60.4484362 -8.34865776 61.06766497 -5.1875 62.4375 C-5.5175 63.0975 -5.8475 63.7575 -6.1875 64.4375 C-25.77421096 65.39763289 -25.77421096 65.39763289 -34.1875 59.4375 C-35.095 58.839375 -36.0025 58.24125 -36.9375 57.625 C-43.10415217 51.62964372 -47.33823323 44.55664957 -50.1875 36.4375 C-50.1875 35.1175 -50.1875 33.7975 -50.1875 32.4375 C-47.7125 31.9425 -47.7125 31.9425 -45.1875 31.4375 C-45.04054688 30.18195313 -44.89359375 28.92640625 -44.7421875 27.6328125 C-43.33634209 16.75217744 -41.84601437 7.95455151 -33.6875 0 C-22.44794762 -7.02472024 -11.16965781 -7.52459772 0 0 Z " fill="#FBFCFC" transform="translate(312.1875,379.5625)"/>
<path d="M0 0 C3 1 3 1 4.2109375 2.85546875 C4.78714844 4.00982422 4.78714844 4.00982422 5.375 5.1875 C12.78053551 18.99664563 27.06668624 27.68330882 41.83984375 32.25390625 C52.31447007 35.13575776 62.62089989 37.08531052 73.46875 37.65625 C76 38 76 38 79 40 C79.94458008 42.20336914 79.94458008 42.20336914 80.76953125 45.03515625 C81.25691772 46.67967773 81.25691772 46.67967773 81.75415039 48.35742188 C82.27803345 50.19143555 82.27803345 50.19143555 82.8125 52.0625 C83.18863941 53.35372918 83.56553566 54.64473809 83.94311523 55.93554688 C84.80325537 58.88615004 85.65482413 61.83909299 86.50195312 64.79345703 C87.897966 69.65714982 89.31634818 74.51416588 90.73616028 79.37095642 C92.03005208 83.80358379 93.31555122 88.23861561 94.59896851 92.67428589 C95.24030835 94.88792704 95.88387696 97.10092372 96.5296936 99.31326294 C97.44571535 102.45660896 98.35111323 105.60283282 99.25390625 108.75 C99.67044464 110.16864601 99.67044464 110.16864601 100.09539795 111.61595154 C102.64889826 120.59670147 102.64889826 120.59670147 102 125 C100.64233398 126.67163086 100.64233398 126.67163086 98.74609375 127.96484375 C98.05580078 128.45533203 97.36550781 128.94582031 96.65429688 129.45117188 C95.92275391 129.94166016 95.19121094 130.43214844 94.4375 130.9375 C86.7165284 136.27083354 79.75964784 141.35613321 75.6875 150.0625 C75.21699219 151.04347656 74.74648437 152.02445313 74.26171875 153.03515625 C69.13662119 165.07834216 69.1132495 176.49148176 72 189.0625 C72.28617188 190.3609082 72.28617188 190.3609082 72.578125 191.68554688 C73.04369179 193.79223661 73.52064561 195.89640464 74 198 C72.68 198 71.36 198 70 198 C69.55011719 197.05382812 69.10023438 196.10765625 68.63671875 195.1328125 C64.10586954 185.76306429 59.03247762 176.88114366 53.515625 168.05859375 C53.09345703 167.37522949 52.67128906 166.69186523 52.23632812 165.98779297 C51.42285857 164.67988042 50.59372687 163.38155849 49.74804688 162.09423828 C48.06288765 159.41691627 46.99683301 157.53997257 47.015625 154.3359375 C48.1961767 151.53446958 49.64559987 149.8164242 51.75 147.625 C55.19781255 143.92294228 58.15499906 140.17859513 61 136 C58.43724147 136.95764655 55.87478711 137.9160936 53.3125 138.875 C52.59126953 139.14441406 51.87003906 139.41382813 51.12695312 139.69140625 C47.40053517 141.08668603 43.68675345 142.50202917 40 144 C36.65406857 138.68636795 34.57857006 133.10723139 32.375 127.25 C31.76398438 125.67992187 31.76398438 125.67992187 31.140625 124.078125 C28.83208673 117.96279183 27.39620727 112.53058885 27 106 C29.26896632 104.68417937 31.54003187 103.37224764 33.8125 102.0625 C34.45509766 101.68931641 35.09769531 101.31613281 35.75976562 100.93164062 C38.48316424 99.36533365 41.01108122 97.99630626 44 97 C44.99 97.99 44.99 97.99 46 99 C38.08 102.96 38.08 102.96 30 107 C31.78860622 115.9430311 34.68596274 124.42400063 38.18359375 132.83203125 C39.1949535 135.51769948 39.7000386 138.15036673 40 141 C41.11375 140.4121875 41.11375 140.4121875 42.25 139.8125 C45.45173667 138.21925485 48.71379519 136.7851252 52 135.375 C53.485 134.73691406 53.485 134.73691406 55 134.0859375 C58.01025153 132.99628916 60.833265 132.42411629 64 132 C64 132.99 64 133.98 64 135 C64.66 135.33 65.32 135.66 66 136 C65.319375 136.639375 64.63875 137.27875 63.9375 137.9375 C60.82159341 141.02677491 58.26068269 144.49523484 55.6484375 148.01171875 C54 150 54 150 51 152 C49.98542293 157.69854121 52.53626479 161.28254544 55.5 165.875 C55.92925781 166.56335938 56.35851562 167.25171875 56.80078125 167.9609375 C57.8552757 169.64812861 58.92603925 171.32513264 60 173 C62.97 172.01 62.97 172.01 66 171 C66.12955078 169.76636719 66.12955078 169.76636719 66.26171875 168.5078125 C67.24197881 160.71969129 69.10362608 154.78118922 73 148 C73.33386719 147.29875 73.66773438 146.5975 74.01171875 145.875 C75.49660103 143.05783204 77.70543114 141.18784472 80 139 C81.3303125 137.6078125 81.3303125 137.6078125 82.6875 136.1875 C85 134 85 134 87 134 C87 133.34 87 132.68 87 132 C89.1171875 130.2734375 89.1171875 130.2734375 91.875 128.375 C92.77992188 127.74335938 93.68484375 127.11171875 94.6171875 126.4609375 C97 125 97 125 99 125 C98.67 120.71 98.34 116.42 98 112 C97.34 112 96.68 112 96 112 C96 111.01 96 110.02 96 109 C95.34 109 94.68 109 94 109 C94.06832031 108.05382812 94.13664062 107.10765625 94.20703125 106.1328125 C94.20319718 101.04372509 92.39703644 96.61002236 90.6875 91.875 C88.2410134 84.85263219 86.14734538 77.99597572 84.609375 70.71875 C83.7088035 66.70081564 82.38411289 62.87264747 81 59 C78.91187351 53.0576699 77.24153809 47.1784778 76 41 C74.96746094 40.91363281 73.93492187 40.82726562 72.87109375 40.73828125 C59.99862336 39.54146682 47.57688707 36.94324049 35 34 C35 33.34 35 32.68 35 32 C33.741875 31.67 32.48375 31.34 31.1875 31 C25.91102731 29.26618275 21.94317796 26.30701457 17.578125 22.9375 C13.21421085 19.37383342 13.21421085 19.37383342 8 18 C7.7264936 24.79663392 8.6011637 30.36763669 10.5 36.875 C10.97191137 38.53816873 11.44079808 40.20219949 11.90625 41.8671875 C12.11572266 42.59019043 12.32519531 43.31319336 12.54101562 44.05810547 C13 46 13 46 13 49 C13.95261719 49.04898438 14.90523437 49.09796875 15.88671875 49.1484375 C17.14097656 49.22320312 18.39523438 49.29796875 19.6875 49.375 C20.92886719 49.44460937 22.17023438 49.51421875 23.44921875 49.5859375 C26.69317772 49.96422094 29.06567185 50.61979976 32 52 C32 52.33 32 52.66 32 53 C18.3667426 52.03644647 18.3667426 52.03644647 12 51 C9.43239662 44.58863323 7.63940467 38.14155096 6 31.4375 C5.73944824 30.38208008 5.47889648 29.32666016 5.21044922 28.23925781 C0 6.90867583 0 6.90867583 0 0 Z " fill="#69D5FE" transform="translate(94,69)"/>
<path d="M0 0 C4.54194432 3.2351838 8.77778078 6.65146198 12.875 10.4375 C28.54219413 24.67607461 46.80444519 33.31807131 67.2734375 38.10546875 C69.74667821 38.69915022 72.20551483 39.35661532 74.64453125 40.078125 C77.61040361 40.89296304 80.25737103 41.33918575 83.3125 41.5625 C87.7981982 41.8990991 87.7981982 41.8990991 90 43 C90 43.66 90 44.32 90 45 C91.485 45.495 91.485 45.495 93 46 C94.4783226 48.95664519 94.06032783 51.74229737 94 55 C87.27459294 56.08301784 82.37593177 55.79158506 75.875 53.875 C75.0502417 53.64272705 74.2254834 53.4104541 73.37573242 53.17114258 C70.91083376 52.46725988 68.45514103 51.7371011 66 51 C65.31534668 50.80100098 64.63069336 50.60200195 63.92529297 50.39697266 C43.92544968 44.54027342 26.93147442 34.41030603 12 20 C12.33 19.34 12.66 18.68 13 18 C13.99 18.66 14.98 19.32 16 20 C16 20.66 16 21.32 16 22 C16.99 22 17.98 22 19 22 C18.22914063 21.26394531 17.45828125 20.52789062 16.6640625 19.76953125 C15.65064388 18.78426315 14.63764506 17.79856313 13.625 16.8125 C13.11710938 16.32974609 12.60921875 15.84699219 12.0859375 15.34960938 C9.07960507 12.40261245 7.3867881 9.9502449 6 6 C4.68352881 5.30062468 3.34977849 4.63270867 2 4 C0.875 1.94140625 0.875 1.94140625 0 0 Z " fill="#53AEE1" transform="translate(137,367)"/>
<path d="M0 0 C0.66 0.33 1.32 0.66 2 1 C1.57709487 4.59469361 1.14911002 8.1652975 0.51245117 11.72924805 C-1.06489887 20.72065002 -1.35969624 29.53089005 -1.3125 38.625 C-1.31034485 39.37323029 -1.3081897 40.12146057 -1.30596924 40.8923645 C-1.17545567 69.16741192 5.29278005 96.49701512 21.84765625 119.8984375 C22.41806641 120.93871094 22.41806641 120.93871094 23 122 C22.67 122.99 22.34 123.98 22 125 C17.19806318 119.05717748 13.51214789 112.77520728 10 106 C11.24456712 111.02886066 12.37925614 115.56681649 15.625 119.6875 C18.21171808 122.98537018 18.91668395 125.75088129 19 130 C18.01 130.99 18.01 130.99 17 132 C-4.92857907 91.85833701 -13.67430466 49.00210789 -1.90234375 3.97265625 C-1 1 -1 1 0 0 Z " fill="#DDFEFF" transform="translate(101,225)"/>
<path d="M0 0 C0.66 0.33 1.32 0.66 2 1 C1.41981353 3.41744365 0.75440785 5.70788325 -0.0625 8.0625 C-2.57870954 17.05170659 -1.00619332 24.75511107 3 33 C0 34 0 34 -1.76171875 33.22265625 C-2.39722656 32.83980469 -3.03273438 32.45695312 -3.6875 32.0625 C-8.12076662 29.71547649 -11.01033098 29.42741503 -16 30 C-18.81780534 31.38885248 -18.81780534 31.38885248 -21 33 C-21.66 33 -22.32 33 -23 33 C-23.33 33.99 -23.66 34.98 -24 36 C-24.99 36 -25.98 36 -27 36 C-26.23909091 30.42 -26.23909091 30.42 -24.97265625 28.1953125 C-23.6676057 25.24977673 -23.77134131 22.83537793 -23.8125 19.625 C-23.81894531 18.52414063 -23.82539062 17.42328125 -23.83203125 16.2890625 C-23.99387644 13.11990794 -24.4117228 10.11551603 -25 7 C-24.38253906 7.03480469 -23.76507813 7.06960937 -23.12890625 7.10546875 C-14.08736495 7.39446779 -7.2541163 5.39408648 0 0 Z " fill="#FEFEFE" transform="translate(130,21)"/>
<path d="M0 0 C0.31453125 0.79664063 0.6290625 1.59328125 0.953125 2.4140625 C5.42846828 13.87278145 5.42846828 13.87278145 14.296875 21.96484375 C20.21977938 24.233008 26.72191318 24.48952449 33 25 C32.01 25.495 32.01 25.495 31 26 C33.0072908 29.0109362 33.83884224 29.63016497 37 31 C36.67 31.66 36.34 32.32 36 33 C16.41328904 33.96013289 16.41328904 33.96013289 8 28 C7.0925 27.401875 6.185 26.80375 5.25 26.1875 C-0.91665217 20.19214372 -5.15073323 13.11914957 -8 5 C-8 3.68 -8 2.36 -8 1 C-5.23735711 0.40267181 -2.83967231 0 0 0 Z " fill="#0D0D0E" transform="translate(270,411)"/>
<path d="M0 0 C2.26343735 0.88898236 4.4490566 1.81606304 6.6171875 2.9140625 C6.6171875 3.5740625 6.6171875 4.2340625 6.6171875 4.9140625 C6.07916504 4.71635254 5.54114258 4.51864258 4.98681641 4.31494141 C-0.64330166 2.33076417 -6.09989058 1.09398909 -12.0078125 0.2890625 C-12.89428467 0.16426514 -13.78075684 0.03946777 -14.6940918 -0.08911133 C-25.21248773 -1.47024078 -35.78623072 -1.82258705 -46.3828125 -2.0859375 C-46.56156621 3.50815577 -46.56156621 3.50815577 -45.0078125 8.7890625 C-43.90605187 11.47715441 -43.07856107 14.0033076 -42.5078125 16.8515625 C-40.48892958 26.60666904 -37.38023381 36.24610872 -34.1328125 45.65625 C-32.76659898 49.76912194 -31.57122882 53.93655164 -30.34765625 58.09375 C-29.46387419 61.06927563 -29.46387419 61.06927563 -27.3828125 63.9140625 C-27.3828125 64.9040625 -27.3828125 65.8940625 -27.3828125 66.9140625 C-23.66264968 64.82891786 -20.63556031 62.4944794 -17.5078125 59.6015625 C-14.51173835 56.85143473 -11.50491607 54.14516988 -8.3828125 51.5390625 C-5.29910419 49.07115148 -5.29910419 49.07115148 -3.3828125 45.9140625 C-2.7228125 45.9140625 -2.0628125 45.9140625 -1.3828125 45.9140625 C-1.11210937 45.32367188 -0.84140625 44.73328125 -0.5625 44.125 C0.6010731 41.94426365 1.83832921 40.36430507 3.4921875 38.5390625 C6.18631662 35.48175421 8.43627141 32.35319941 10.6171875 28.9140625 C11.2771875 29.5740625 11.9371875 30.2340625 12.6171875 30.9140625 C7.46115559 38.3039066 2.15142156 45.66451498 -4.3828125 51.9140625 C-5.0428125 51.9140625 -5.7028125 51.9140625 -6.3828125 51.9140625 C-6.3828125 52.5740625 -6.3828125 53.2340625 -6.3828125 53.9140625 C-7.0428125 53.9140625 -7.7028125 53.9140625 -8.3828125 53.9140625 C-8.7128125 54.9040625 -9.0428125 55.8940625 -9.3828125 56.9140625 C-11.03550021 58.41520618 -12.75487936 59.84379917 -14.5078125 61.2265625 C-15.49652344 62.01546875 -16.48523438 62.804375 -17.50390625 63.6171875 C-18.45394531 64.37515625 -19.40398437 65.133125 -20.3828125 65.9140625 C-22.73563119 67.89284335 -25.05953668 69.90055679 -27.3828125 71.9140625 C-30.7602214 69.26474338 -31.60524139 65.82864388 -32.765625 61.87109375 C-32.98138184 61.16237122 -33.19713867 60.45364868 -33.41943359 59.72344971 C-34.12537399 57.39398527 -34.8169478 55.06053839 -35.5078125 52.7265625 C-35.99284643 51.11175342 -36.47836602 49.49709013 -36.96435547 47.88256836 C-40.24385563 36.9424338 -43.41086563 25.96967818 -46.5078125 14.9765625 C-46.69958069 14.29606842 -46.89134888 13.61557434 -47.08892822 12.91445923 C-50.42040593 1.05740591 -50.42040593 1.05740591 -51.3828125 -4.0859375 C-39.5446743 -10.0050066 -12.62923348 -4.05418812 0 0 Z " fill="#6FDDFE" transform="translate(236.3828125,112.0859375)"/>
<path d="M0 0 C0.99 0.33 1.98 0.66 3 1 C2.89300781 1.87140625 2.78601563 2.7428125 2.67578125 3.640625 C1.82435583 12.09994855 2.37839072 18.91300187 5 27 C4.01 27 3.02 27 2 27 C1.57460937 26.51273438 1.14921875 26.02546875 0.7109375 25.5234375 C-1.85834127 23.23572352 -3.99884149 23.60182271 -7.375 23.625 C-8.49648437 23.61726563 -9.61796875 23.60953125 -10.7734375 23.6015625 C-14.25198023 24.0311162 -16.16527444 24.99339651 -19 27 C-19 23 -19 23 -18 20.875 C-16.12441768 15.48270083 -16.42333949 9.461552 -18 4 C-17.20335938 4.04640625 -16.40671875 4.0928125 -15.5859375 4.140625 C-8.8366623 4.37052732 -5.27736026 4.19482482 0 0 Z " fill="#FEFEFE" transform="translate(87,185)"/>
<path d="M0 0 C4.20674956 1.53671579 8.42895332 3.02984182 12.64892578 4.52978516 C16.26983025 5.81840832 19.8881171 7.11414958 23.50585938 8.41162109 C28.05802027 10.04377363 32.61511085 11.66052925 37.17773438 13.26318359 C39.16998899 13.9700257 41.16218017 14.67704665 43.15429688 15.38427734 C44.06977295 15.70187012 44.98524902 16.01946289 45.9284668 16.34667969 C46.76740479 16.64654785 47.60634277 16.94641602 48.47070312 17.25537109 C49.19845947 17.51116943 49.92621582 17.76696777 50.67602539 18.03051758 C52.78228448 19.03788222 54.0474168 20.21363634 55.59179688 21.94677734 C49.07195444 21.38177498 43.39575901 19.74869508 37.23242188 17.59521484 C36.24796082 17.25809479 35.26349976 16.92097473 34.24920654 16.57363892 C31.11085334 15.49693892 27.97634127 14.40950923 24.84179688 13.32177734 C22.78344364 12.61404619 20.72485162 11.90700913 18.66601562 11.20068359 C10.7360663 8.47554123 2.81217984 5.73378829 -5.0949707 2.94311523 C-5.99318542 2.6265799 -6.89140015 2.31004456 -7.8168335 1.98391724 C-9.4825248 1.39598356 -11.14743329 0.80582461 -12.81134033 0.21286011 C-24.04439534 -3.7544689 -35.22095876 -6.35234736 -47.09057617 -7.37084961 C-48.87011222 -7.53484566 -50.64122606 -7.78594881 -52.40820312 -8.05322266 C-52.73820313 -8.71322266 -53.06820312 -9.37322266 -53.40820312 -10.05322266 C-37.12456924 -15.48110062 -15.21877852 -5.60198453 0 0 Z " fill="#FEFEFD" transform="translate(270.408203125,202.05322265625)"/>
<path d="M0 0 C16.43833959 14.3587906 20.80563994 49.78374479 22.95361328 70.01489258 C23 72 23 72 22 74 C17.125 73.125 17.125 73.125 16 72 C15.76085044 70.3968681 15.57924774 68.78508863 15.421875 67.171875 C13.20937502 45.98790055 9.24057185 25.78593504 0.734375 6.15625 C0 4 0 4 0 0 Z " fill="#F6FEFE" transform="translate(395,196)"/>
<path d="M0 0 C0.99 0.495 0.99 0.495 2 1 C2.625 3.5625 2.625 3.5625 3 6 C3.66 6 4.32 6 5 6 C5.3403125 7.10214844 5.680625 8.20429688 6.03125 9.33984375 C10.59511084 23.76561954 16.06141384 37.47849746 24.84765625 49.8984375 C25.22792969 50.59195313 25.60820313 51.28546875 26 52 C25.67 52.99 25.34 53.98 25 55 C20.19806318 49.05717748 16.51214789 42.77520728 13 36 C14.24456712 41.02886066 15.37925614 45.56681649 18.625 49.6875 C21.21171808 52.98537018 21.91668395 55.75088129 22 60 C21.34 60.66 20.68 61.32 20 62 C5 34.49344978 5 34.49344978 5 28 C5.66 28 6.32 28 7 28 C6.823479 27.43603516 6.64695801 26.87207031 6.46508789 26.29101562 C5.65724015 23.69612685 4.85982281 21.09814113 4.0625 18.5 C3.78470703 17.613125 3.50691406 16.72625 3.22070312 15.8125 C1.60499994 10.51766545 0.50893802 5.51456889 0 0 Z " fill="#A1E5FB" transform="translate(98,295)"/>
<path d="M0 0 C0.33 0 0.66 0 1 0 C1 2.66666667 1 5.33333333 1 8 C3.475 8.99 3.475 8.99 6 10 C1.25 14 1.25 14 -1 14 C-2.64611657 16.04502031 -2.64611657 16.04502031 -4.3125 18.625 C-10.10836912 27.13280788 -16.95143733 34.10065856 -24.5 41.0625 C-25.05558594 41.57876953 -25.61117187 42.09503906 -26.18359375 42.62695312 C-35.24995024 51 -35.24995024 51 -38 51 C-37.01 48.03 -37.01 48.03 -36 45 C-35.34 45 -34.68 45 -34 45 C-33.73517822 44.40396973 -33.47035645 43.80793945 -33.19750977 43.19384766 C-31.95780617 40.92270056 -30.75740799 39.61512456 -28.83984375 37.8984375 C-27.90277588 37.04693115 -27.90277588 37.04693115 -26.94677734 36.17822266 C-26.28371582 35.58315918 -25.6206543 34.9880957 -24.9375 34.375 C-13.90684016 24.26465743 -4.19370083 14.7290956 0 0 Z " fill="#65D4F7" transform="translate(248,128)"/>
<path d="M0 0 C29.17748717 4.41651783 66.13155648 10.69598217 87 34 C86.67 34.99 86.34 35.98 86 37 C85.58492188 36.5875 85.16984375 36.175 84.7421875 35.75 C71.69810208 23.52458103 52.47116348 14.38151551 35 11 C35 10.34 35 9.68 35 9 C26.79512594 7.45371682 18.56704154 6.12639035 10.3125 4.875 C9.12205078 4.69324219 7.93160156 4.51148437 6.70507812 4.32421875 C3.80359427 3.88142202 0.90190279 3.44004132 -2 3 C-1.34 2.01 -0.68 1.02 0 0 Z " fill="#78E2FE" transform="translate(256,120)"/>
<path d="M0 0 C0 0.66 0 1.32 0 2 C0.61488281 2.03738281 1.22976563 2.07476562 1.86328125 2.11328125 C2.67152344 2.17902344 3.47976563 2.24476563 4.3125 2.3125 C5.11300781 2.37050781 5.91351563 2.42851562 6.73828125 2.48828125 C9.43495357 3.09840918 10.1151043 4.0470926 12 6 C14.31475105 7.01141807 14.31475105 7.01141807 16.9375 7.8125 C36.75742992 14.74817666 54.66750619 27.75175993 69 43 C69 43.66 69 44.32 69 45 C65.83368336 43.61430344 63.89322613 42.03317227 61.5625 39.5 C44.16868883 21.7531779 19.4730111 8.24106158 -5 4 C-8.0305646 3.40594046 -11.00186421 2.74953395 -14 2 C-14.33 1.34 -14.66 0.68 -15 0 C-9.76528314 -0.75612577 -5.22745859 -1.2063366 0 0 Z " fill="#7CF2FF" transform="translate(268,137)"/>
<path d="M0 0 C0.66 0.66 1.32 1.32 2 2 C-2.22949995 4.41685712 -5.12335991 5.34833144 -10 5 C-9.87882812 5.53625 -9.75765625 6.0725 -9.6328125 6.625 C-8.44924451 12.16045644 -7.58364422 17.69993487 -6.875 23.3125 C-6.78750488 23.99376953 -6.70000977 24.67503906 -6.60986328 25.37695312 C-6.1746863 28.9389249 -5.90282846 32.41159386 -6 36 C-5.14019531 35.855625 -4.28039062 35.71125 -3.39453125 35.5625 C17.84165471 32.2277009 17.84165471 32.2277009 26 36 C26 36.33 26 36.66 26 37 C24.67162109 36.96519531 24.67162109 36.96519531 23.31640625 36.9296875 C13.39181237 36.78510445 3.82734276 37.65280001 -6 39 C-9.45852701 34.29283573 -10.17975641 29.30655276 -11.1875 23.6875 C-11.36474609 22.77548828 -11.54199219 21.86347656 -11.72460938 20.92382812 C-12.72453146 15.53814741 -13.37756426 10.47777654 -13 5 C-10.69989124 2.69989124 -9.62478923 2.54115246 -6.5 1.9375 C-3.14540186 1.28047869 -3.14540186 1.28047869 0 0 Z " fill="#65DFFE" transform="translate(120,125)"/>
<path d="M0 0 C0.99 0.66 1.98 1.32 3 2 C-4.92 5.96 -4.92 5.96 -13 10 C-11.21139378 18.9430311 -8.31403726 27.42400063 -4.81640625 35.83203125 C-3.8050465 38.51769948 -3.2999614 41.15036673 -3 44 C-1.88625 43.4121875 -1.88625 43.4121875 -0.75 42.8125 C2.45173667 41.21925485 5.71379519 39.7851252 9 38.375 C10.485 37.73691406 10.485 37.73691406 12 37.0859375 C15.01025153 35.99628916 17.833265 35.42411629 21 35 C21 35.99 21 36.98 21 38 C21.99 38.495 21.99 38.495 23 39 C22.34 39.66 21.68 40.32 21 41 C19.0625 40.625 19.0625 40.625 17 40 C14.02251797 40 12.67046266 40.40191046 9.98828125 41.53125 C9.23095703 41.84707031 8.47363281 42.16289062 7.69335938 42.48828125 C6.90767578 42.82214844 6.12199219 43.15601563 5.3125 43.5 C4.51521484 43.83386719 3.71792969 44.16773438 2.89648438 44.51171875 C0.92899913 45.33641316 -1.03576674 46.1675898 -3 47 C-6.34593143 41.68636795 -8.42142994 36.10723139 -10.625 30.25 C-11.23601562 28.67992187 -11.23601562 28.67992187 -11.859375 27.078125 C-14.16791327 20.96279183 -15.60379273 15.53058885 -16 9 C-13.70870707 7.68684387 -11.4169845 6.37444807 -9.125 5.0625 C-8.47402344 4.68931641 -7.82304687 4.31613281 -7.15234375 3.93164062 C-2.2265625 1.11328125 -2.2265625 1.11328125 0 0 Z " fill="#75D8FF" transform="translate(137,166)"/>
<path d="M0 0 C0.66 0 1.32 0 2 0 C2.66 2.31 3.32 4.62 4 7 C4.66 6.67 5.32 6.34 6 6 C8.08244945 13.20385082 10.16360623 20.40807419 12.24389648 27.61254883 C12.95063529 30.05957341 13.65766183 32.50651492 14.36499023 34.95336914 C15.38602517 38.48561757 16.40599925 42.01817091 17.42578125 45.55078125 C17.73840408 46.63144363 18.05102692 47.71210602 18.37312317 48.82551575 C19.25483404 51.88198026 20.12972287 54.94026152 21 58 C21.29127777 59.01992035 21.58255554 60.0398407 21.88265991 61.09066772 C22.15623322 62.06645782 22.42980652 63.04224792 22.71166992 64.04760742 C22.95568039 64.91342941 23.19969086 65.7792514 23.45109558 66.67131042 C24.11639485 69.49379723 24.23410809 72.11266691 24 75 C22.515 74.505 22.515 74.505 21 74 C20.505 68.06 20.505 68.06 20 62 C19.34 62 18.68 62 18 62 C18 61.01 18 60.02 18 59 C17.34 59 16.68 59 16 59 C16.10248047 57.58074219 16.10248047 57.58074219 16.20703125 56.1328125 C16.20319718 51.04372509 14.39703644 46.61002236 12.6875 41.875 C10.2410134 34.85263219 8.14734538 27.99597572 6.609375 20.71875 C5.70852821 16.69958741 4.37673614 12.87604176 3 9 C2.43440178 7.3135359 1.87184776 5.62604748 1.3125 3.9375 C1.06113281 3.18339844 0.80976563 2.42929688 0.55078125 1.65234375 C0.36902344 1.10707031 0.18726563 0.56179687 0 0 Z " fill="#5AD0FE" transform="translate(172,119)"/>
<path d="M0 0 C3.61870631 1.20623544 3.83676255 1.9824595 5.5625 5.25 C5.99046875 6.05824219 6.4184375 6.86648437 6.859375 7.69921875 C8.04447979 10.08972121 9.10741336 12.48452855 10 15 C8.35 14.01 6.7 13.02 5 12 C5.17128418 12.76554199 5.34256836 13.53108398 5.51904297 14.31982422 C6.30551229 17.83796012 7.09026704 21.35647641 7.875 24.875 C8.14441406 26.07898438 8.41382812 27.28296875 8.69140625 28.5234375 C10.2090117 35.33415466 11.6726336 42.14952334 13 49 C13.95261719 49.04898438 14.90523437 49.09796875 15.88671875 49.1484375 C17.14097656 49.22320312 18.39523438 49.29796875 19.6875 49.375 C20.92886719 49.44460937 22.17023438 49.51421875 23.44921875 49.5859375 C26.69317772 49.96422094 29.06567185 50.61979976 32 52 C32 52.33 32 52.66 32 53 C18.3667426 52.03644647 18.3667426 52.03644647 12 51 C9.43239662 44.58863323 7.63940467 38.14155096 6 31.4375 C5.73944824 30.38208008 5.47889648 29.32666016 5.21044922 28.23925781 C0 6.90867583 0 6.90867583 0 0 Z " fill="#78DDFE" transform="translate(94,69)"/>
<path d="M0 0 C2.13996935 2.00493386 3.66462928 3.90831015 5.0859375 6.46875 C5.45976563 7.12230469 5.83359375 7.77585937 6.21875 8.44921875 C6.98770617 9.81307683 7.75077046 11.18027411 8.5078125 12.55078125 C10.88376825 16.67615647 12.72191265 18.70694518 17 21 C18.94921875 23.12109375 18.94921875 23.12109375 20.6875 25.4375 C21.26886719 26.19933594 21.85023438 26.96117187 22.44921875 27.74609375 C23.84707364 29.77773676 24.96674872 31.76553048 26 34 C24.68 34.66 23.36 35.32 22 36 C22.33 36.99 22.66 37.98 23 39 C23.66 39.33 24.32 39.66 25 40 C25 40.66 25 41.32 25 42 C25.99 42 26.98 42 28 42 C30.10770759 44.88834003 31 46.38462395 31 50 C27.60580737 46.71529745 24.38092265 43.29302848 21.1875 39.8125 C20.39730469 38.95269531 19.60710937 38.09289062 18.79296875 37.20703125 C17 35 17 35 17 33 C19.475 32.505 19.475 32.505 22 32 C21.175 31.05125 20.35 30.1025 19.5 29.125 C17 26.25 17 26.25 17 24 C16.34 24 15.68 24 15 24 C15 23.34 15 22.68 15 22 C14.34 22 13.68 22 13 22 C13 22.66 13 23.32 13 24 C13.66 24.61875 14.32 25.2375 15 25.875 C17 28 17 28 17 32 C16.34 32 15.68 32 15 32 C11.6037356 27.81998228 9.52297283 24.10219069 7.81640625 19.03125 C6.92504186 16.81350127 5.78073858 15.03623832 4.4375 13.0625 C1.70999095 8.93015948 0.75218599 4.84991564 0 0 Z " fill="#8FCFF8" transform="translate(110,330)"/>
<path d="M0 0 C0.66 0.33 1.32 0.66 2 1 C-0.44015396 19.70784704 -11.85719718 30.53318703 -25 43 C-25.66 42.67 -26.32 42.34 -27 42 C-26.62230469 41.59652344 -26.24460938 41.19304687 -25.85546875 40.77734375 C-21.71219573 36.20712925 -17.96794252 31.39946447 -14.3125 26.4375 C-13.84932373 25.81286865 -13.38614746 25.1882373 -12.90893555 24.54467773 C-8.96996122 19.14708627 -5.28088228 13.72540727 -3.375 7.25 C-2.49936726 4.30375336 -1.75380695 2.63071042 0 0 Z " fill="#062955" transform="translate(247,122)"/>
<path d="M0 0 C1.25673416 2.51346831 1.28975839 4.57428138 1.5 7.375 C1.79886224 11.34208991 1.79886224 11.34208991 2.59375 15.2265625 C3 17 3 17 2 19 C-0.97 18.67 -3.94 18.34 -7 18 C-6.67 17.01 -6.34 16.02 -6 15 C-4.02 15.66 -2.04 16.32 0 17 C-0.33 15.989375 -0.66 14.97875 -1 13.9375 C-2.07001321 10.24520089 -2.15704155 6.84751793 -2 3 C-3.0828125 3.495 -3.0828125 3.495 -4.1875 4 C-7 5 -7 5 -12 5 C-12.66 8.96 -13.32 12.92 -14 17 C-12.02 16.34 -10.04 15.68 -8 15 C-8.33 15.99 -8.66 16.98 -9 18 C-11.375 18.625 -11.375 18.625 -14 19 C-16 17 -16 17 -16.08203125 14.28515625 C-15.99308594 13.22167969 -15.90414062 12.15820312 -15.8125 11.0625 C-15.73644531 10.00160156 -15.66039062 8.94070312 -15.58203125 7.84765625 C-14.95526559 4.78113163 -14.50198677 3.80143048 -12 2 C-7.90226615 0.55820476 -4.34487371 -0.26332568 0 0 Z " fill="#5AC6FD" transform="translate(156,124)"/>
<path d="M0 0 C0.66 0.66 1.32 1.32 2 2 C-3.15603191 9.3898441 -8.46576594 16.75045248 -15 23 C-15.66 23 -16.32 23 -17 23 C-17 23.66 -17 24.32 -17 25 C-17.66 25 -18.32 25 -19 25 C-19.33 25.99 -19.66 26.98 -20 28 C-21.65268771 29.50114368 -23.37206686 30.92973667 -25.125 32.3125 C-26.11371094 33.10140625 -27.10242188 33.8903125 -28.12109375 34.703125 C-29.07113281 35.46109375 -30.02117187 36.2190625 -31 37 C-33.35281869 38.97878085 -35.67672418 40.98649429 -38 43 C-40.42999536 40.72635823 -41.42805835 39.31726155 -42 36 C-41.01 35.505 -41.01 35.505 -40 35 C-39.34 35.99 -38.68 36.98 -38 38 C-34.27983718 35.91485536 -31.25274781 33.5804169 -28.125 30.6875 C-25.12892585 27.93737223 -22.12210357 25.23110738 -19 22.625 C-15.91629169 20.15708898 -15.91629169 20.15708898 -14 17 C-13.34 17 -12.68 17 -12 17 C-11.59394531 16.11441406 -11.59394531 16.11441406 -11.1796875 15.2109375 C-10.0161144 13.03020115 -8.77885829 11.45024257 -7.125 9.625 C-4.43087088 6.56769171 -2.18091609 3.43913691 0 0 Z " fill="#95F6FE" transform="translate(247,141)"/>
<path d="M0 0 C0.99 0 1.98 0 3 0 C3.53103519 3.45684768 4.04808907 6.91564262 4.5625 10.375 C4.71396484 11.35984375 4.86542969 12.3446875 5.02148438 13.359375 C5.16005859 14.30039062 5.29863281 15.24140625 5.44140625 16.2109375 C5.57232666 17.08024902 5.70324707 17.94956055 5.83813477 18.84521484 C6 21 6 21 5 23 C0.125 22.125 0.125 22.125 -1 21 C-1.40632434 17.87034015 -1.51616851 14.712715 -1.6875 11.5625 C-1.74744141 10.67755859 -1.80738281 9.79261719 -1.86914062 8.88085938 C-1.91619141 8.03458984 -1.96324219 7.18832031 -2.01171875 6.31640625 C-2.05772217 5.53724854 -2.10372559 4.75809082 -2.15112305 3.95532227 C-2 2 -2 2 0 0 Z " fill="#FCFEFD" transform="translate(412,247)"/>
<path d="M0 0 C0.99 0 1.98 0 3 0 C3.99 4.95 4.98 9.9 6 15 C5.34 15 4.68 15 4 15 C3.34 13.35 2.68 11.7 2 10 C3.51290945 17.44651884 5.08086294 24.78519717 7.44921875 32.01171875 C8 34 8 34 8 37 C7.01 37 6.02 37 5 37 C4.01007013 33.35700385 3.03506295 29.71016746 2.0625 26.0625 C1.78470703 25.04091797 1.50691406 24.01933594 1.22070312 22.96679688 C-0.37323933 16.95590545 -1.48930347 11.19946795 -2 5 C-1.34 5 -0.68 5 0 5 C0 3.35 0 1.7 0 0 Z " fill="#BEFAFF" transform="translate(97,286)"/>
<path d="M0 0 C6.78444074 6.78444074 7.84704388 21.74408725 9.375 30.8125 C9.55466309 31.86840332 9.73432617 32.92430664 9.91943359 34.01220703 C11.12973153 41.6108054 11.12973153 41.6108054 10 45 C7.69 44.67 5.38 44.34 3 44 C3 43.67 3 43.34 3 43 C4.65 43 6.3 43 8 43 C6.09469115 30.70518258 4.04762809 18.82253614 -0.14453125 7.08203125 C-0.97094844 4.10466522 -1.13807865 2.81377729 0 0 Z " fill="#6ED3FE" transform="translate(390,220)"/>
<path d="M0 0 C2.79086828 2.79086828 2.79392694 5.26462231 3.5 9.125 C4.49536215 14.50211942 5.66877083 19.67508331 7 25 C18.88 26.485 18.88 26.485 31 28 C31 28.66 31 29.32 31 30 C28.14559413 29.85803484 25.29153804 29.71154174 22.4375 29.5625 C21.63763672 29.52318359 20.83777344 29.48386719 20.01367188 29.44335938 C6.88674046 28.74682832 6.88674046 28.74682832 4.16796875 26.45703125 C2.51862226 22.98733579 1.90742695 19.44886878 1.3125 15.6875 C1.18294922 14.95337891 1.05339844 14.21925781 0.91992188 13.46289062 C0.15718334 8.91470901 -0.12787223 4.60948958 0 0 Z " fill="#74D6FE" transform="translate(369,236)"/>
<path d="M0 0 C4.97655296 -0.14655662 9.33536396 0.35057992 14.1875 1.4375 C19.99405503 2.69742658 25.67157746 3.42371866 31.609375 3.69140625 C34 4 34 4 37 6 C38.16796875 8.86328125 38.16796875 8.86328125 39.1875 12.3125 C39.53167969 13.44300781 39.87585938 14.57351562 40.23046875 15.73828125 C40.9178627 18.65185459 41.16168974 21.02825417 41 24 C39 23 39 23 37.7109375 19.40234375 C37.25782985 17.91641718 36.8128559 16.42799204 36.375 14.9375 C36.03082031 13.79958008 36.03082031 13.79958008 35.6796875 12.63867188 C35.11289807 10.76118188 34.55555923 8.88084367 34 7 C32.88625 6.90203125 31.7725 6.8040625 30.625 6.703125 C20.10389719 5.69901711 10.17238856 3.85492104 0 1 C0 0.67 0 0.34 0 0 Z " fill="#75DCFF" transform="translate(136,103)"/>
<path d="M0 0 C0.66 0 1.32 0 2 0 C2.19335938 1.26714844 2.38671875 2.53429687 2.5859375 3.83984375 C2.84880377 5.53908642 3.11183336 7.23830383 3.375 8.9375 C3.50132812 9.76830078 3.62765625 10.59910156 3.7578125 11.45507812 C4.62560219 17.03062685 5.72424084 22.50314204 7 28 C5.68 28 4.36 28 3 28 C-0.96 19.585 -0.96 19.585 -5 11 C-4.34 10.67 -3.68 10.34 -3 10 C-2.01 11.98 -1.02 13.96 0 16 C0 10.72 0 5.44 0 0 Z " fill="#8CDFFE" transform="translate(161,239)"/>
<path d="M0 0 C0.33 0.99 0.66 1.98 1 3 C0.32195312 3.47308594 -0.35609375 3.94617188 -1.0546875 4.43359375 C-13.60296978 13.34947853 -22.99019278 21.23425239 -28 36 C-28.66 36 -29.32 36 -30 36 C-29.16894465 27.89721037 -26.12353886 21.37676583 -20 16 C-19.113125 15.071875 -18.22625 14.14375 -17.3125 13.1875 C-15 11 -15 11 -13 11 C-13 10.34 -13 9.68 -13 9 C-10.86229382 7.37322909 -8.7324466 5.86020356 -6.5 4.375 C-5.87996094 3.95476562 -5.25992188 3.53453125 -4.62109375 3.1015625 C-3.08482736 2.06162833 -1.54292476 1.03002944 0 0 Z " fill="#76E4FF" transform="translate(194,192)"/>
<path d="M0 0 C0.66 0.66 1.32 1.32 2 2 C1.9765625 4.6015625 1.9765625 4.6015625 1.625 7.625 C1.45871094 9.12933594 1.45871094 9.12933594 1.2890625 10.6640625 C1.14597656 11.82035156 1.14597656 11.82035156 1 13 C0.01 13 -0.98 13 -2 13 C-1.67 18.61 -1.34 24.22 -1 30 C-4.05387928 28.47306036 -4.65962073 25.96382675 -6.125 22.9375 C-6.66382813 21.83277344 -7.20265625 20.72804687 -7.7578125 19.58984375 C-8.16773438 18.73519531 -8.57765625 17.88054687 -9 17 C-5.25 14 -5.25 14 -3 14 C-2.86722656 13.07316406 -2.73445312 12.14632812 -2.59765625 11.19140625 C-2.42105469 9.99386719 -2.24445313 8.79632813 -2.0625 7.5625 C-1.88847656 6.36753906 -1.71445313 5.17257813 -1.53515625 3.94140625 C-1 1 -1 1 0 0 Z " fill="#5CC3F7" transform="translate(163,226)"/>
<path d="M0 0 C1.9375 0.5 1.9375 0.5 4 2 C5.65844028 8.85488648 5.65844028 8.85488648 3.5625 12.5 C3.046875 12.995 2.53125 13.49 2 14 C-2.875 13.125 -2.875 13.125 -4 12 C-4.59479554 4.74349442 -4.59479554 4.74349442 -2 1.5 C-1.34 1.005 -0.68 0.51 0 0 Z " fill="#BBF1FE" transform="translate(188,74)"/>
<path d="M0 0 C0.66 0.66 1.32 1.32 2 2 C-2.29317695 4.45324397 -5.09293348 5.16494341 -10 5 C-9.48594306 12.68897931 -8.9234499 20.34855794 -8 28 C-12.61331316 24.29671026 -12.37774102 18.53041409 -13 13 C-13.21241832 10.22989173 -13.20637369 7.78604483 -13 5 C-10.69989124 2.69989124 -9.62478923 2.54115246 -6.5 1.9375 C-3.14540186 1.28047869 -3.14540186 1.28047869 0 0 Z " fill="#65D4FE" transform="translate(120,125)"/>
<path d="M0 0 C5.51697372 3.92968799 10.5283478 8.23878258 15.5234375 12.80859375 C18.86002223 15.76099759 22.37332448 18.41675347 26 21 C21.48709402 21 18.19524899 20.909592 14.515625 18.109375 C13.76796875 17.33078125 13.0203125 16.5521875 12.25 15.75 C11.49203125 14.98171875 10.7340625 14.2134375 9.953125 13.421875 C7.99713763 10.99645066 7.09306265 8.88667909 6 6 C4.68352881 5.30062468 3.34977849 4.63270867 2 4 C0.875 1.94140625 0.875 1.94140625 0 0 Z " fill="#49A3D9" transform="translate(137,367)"/>
<path d="M0 0 C0.66 0 1.32 0 2 0 C2.86854723 7.5274093 0.50050487 13.89844784 -4 20 C-6.70703125 20.84765625 -6.70703125 20.84765625 -9 21 C-8.6254463 16.75505807 -7.07743406 14.9164924 -4.27734375 11.82421875 C-1.82408336 8.32063281 -0.99921279 4.11058269 0 0 Z " fill="#9AA5A1" transform="translate(321,408)"/>
<path d="M0 0 C0.99 0.33 1.98 0.66 3 1 C3 1.66 3 2.32 3 3 C3.66 3 4.32 3 5 3 C6.5078125 4.96875 6.5078125 4.96875 8.125 7.5 C8.66382813 8.3353125 9.20265625 9.170625 9.7578125 10.03125 C10.37269531 11.00578125 10.37269531 11.00578125 11 12 C9.02 12 7.04 12 5 12 C5.33 13.32 5.66 14.64 6 16 C1.571587 13.7857935 -0.57895218 11.30408501 -3 7 C-3 6.01 -3 5.02 -3 4 C0.41158256 5.13719419 1.11854601 6.04342944 3 9 C3 9.66 3 10.32 3 11 C3.66 11 4.32 11 5 11 C3.73053486 6.17557816 3.73053486 6.17557816 0 3 C0 2.01 0 1.02 0 0 Z " fill="#7DCEF8" transform="translate(122,351)"/>
<path d="M0 0 C5.66442374 0.36504064 10.00703705 1.0554321 15 4 C15.33 3.34 15.66 2.68 16 2 C16.86625 2.639375 17.7325 3.27875 18.625 3.9375 C21.9598812 5.97548296 24.16047478 6.63433093 28 7 C27.3125 9.375 27.3125 9.375 26 12 C23.375 13.3125 23.375 13.3125 21 14 C21 12.02 21 10.04 21 8 C18.69474686 6.63392407 17.27359491 6 14.5625 6 C10.91211031 6 8.2147137 4.60735685 5 3 C3.33607955 2.32650839 1.66967972 1.6590841 0 1 C0 0.67 0 0.34 0 0 Z " fill="#5BC8FC" transform="translate(228,113)"/>
<path d="M0 0 C4.69762674 0.44582046 6.43315422 2.07976487 9.4375 5.625 C10.20707031 6.52605469 10.97664062 7.42710937 11.76953125 8.35546875 C12.50558594 9.22816406 13.24164063 10.10085938 14 11 C14.96486328 12.04607422 14.96486328 12.04607422 15.94921875 13.11328125 C17.625 14.9375 17.625 14.9375 20 18 C19.67 18.99 19.34 19.98 19 21 C18.40832031 20.39671875 17.81664062 19.7934375 17.20703125 19.171875 C12.45273574 14.30241117 12.45273574 14.30241117 7.25 9.9375 C4.00825607 7.14599829 2.10444278 3.68949118 0 0 Z " fill="#63D8FE" transform="translate(125,366)"/>
<path d="M0 0 C1.98 0.99 1.98 0.99 4 2 C4 2.66 4 3.32 4 4 C5.32 4 6.64 4 8 4 C8.33 4.66 8.66 5.32 9 6 C9.78375 6.144375 10.5675 6.28875 11.375 6.4375 C14.29933803 7.06414386 15.04252428 7.85609802 17 10 C17.66 10 18.32 10 19 10 C18.34 11.65 17.68 13.3 17 15 C12.21949544 13.50997261 9.25531083 10.85538953 5.6875 7.5 C5.13771484 7.00113281 4.58792969 6.50226563 4.02148438 5.98828125 C2.63673119 4.70501929 1.31280657 3.35677617 0 2 C0 1.34 0 0.68 0 0 Z " fill="#5BB8E7" transform="translate(149,385)"/>
<path d="M0 0 C0.66 0.33 1.32 0.66 2 1 C1.17321655 8.02765937 0.09751783 15.00998353 -1 22 C-1.99 22.33 -2.98 22.66 -4 23 C-5.55519709 18.07849021 -4.35727209 14.08932019 -3.125 9.25 C-2.93808594 8.47011719 -2.75117187 7.69023437 -2.55859375 6.88671875 C-1.15245176 1.15245176 -1.15245176 1.15245176 0 0 Z " fill="#E0FCFE" transform="translate(101,225)"/>
<path d="M0 0 C0.625 3.375 0.625 3.375 1 7 C0.34 7.66 -0.32 8.32 -1 9 C-4.125 8.625 -4.125 8.625 -7 8 C-7.89674777 5.48910624 -8.13172674 4.35464891 -7.1875 1.8125 C-5.04618042 -1.45582989 -3.44002379 -1.03200714 0 0 Z " fill="#F9FBFC" transform="translate(27,119)"/>
<path d="M0 0 C0.99 0.495 0.99 0.495 2 1 C2.625 3.5625 2.625 3.5625 3 6 C3.66 6 4.32 6 5 6 C6.65 11.61 8.3 17.22 10 23 C9.01 23 8.02 23 7 23 C6.34 20.36 5.68 17.72 5 15 C4.34 15 3.68 15 3 15 C2.49564306 13.0636296 1.99666126 11.12585854 1.5 9.1875 C1.2215625 8.10855469 0.943125 7.02960938 0.65625 5.91796875 C0 3 0 3 0 0 Z " fill="#A2EAFB" transform="translate(98,295)"/>
<path d="M0 0 C0 0.66 0 1.32 0 2 C0.63808594 2.04898438 1.27617187 2.09796875 1.93359375 2.1484375 C2.75988281 2.22320312 3.58617187 2.29796875 4.4375 2.375 C5.26121094 2.44460937 6.08492188 2.51421875 6.93359375 2.5859375 C7.61550781 2.72257813 8.29742187 2.85921875 9 3 C9.33 3.66 9.66 4.32 10 5 C4.1473992 5.30803162 -1.25293143 4.74486088 -7 3.625 C-8.0065564 3.43587036 -8.0065564 3.43587036 -9.03344727 3.24291992 C-10.70507458 2.89933503 -12.35580743 2.4571862 -14 2 C-14.33 1.34 -14.66 0.68 -15 0 C-9.76528314 -0.75612577 -5.22745859 -1.2063366 0 0 Z " fill="#74D8FD" transform="translate(268,137)"/>
<path d="M0 0 C2.625 -0.125 2.625 -0.125 6 1 C8.4929025 4.08173377 10.49366015 7.33086092 12 11 C11.67 11.99 11.34 12.98 11 14 C8.33333333 11.33333333 5.66666667 8.66666667 3 6 C2.41863281 5.48050781 1.83726562 4.96101563 1.23828125 4.42578125 C0 3 0 3 0 0 Z " fill="#E1E2DB" transform="translate(310,382)"/>
<path d="M0 0 C3.61870631 1.20623544 3.83676255 1.9824595 5.5625 5.25 C5.99046875 6.05824219 6.4184375 6.86648437 6.859375 7.69921875 C8.04447979 10.08972121 9.10741336 12.48452855 10 15 C8.02 13.35 6.04 11.7 4 10 C4 11.32 4 12.64 4 14 C3.34 14 2.68 14 2 14 C1.66179834 12.4176994 1.32964061 10.83410625 1 9.25 C0.814375 8.36828125 0.62875 7.4865625 0.4375 6.578125 C0 4 0 4 0 0 Z " fill="#A5F7FE" transform="translate(94,69)"/>
<path d="M0 0 C4.29 0.33 8.58 0.66 13 1 C12.01 1.495 12.01 1.495 11 2 C13.0072908 5.0109362 13.83884224 5.63016497 17 7 C16.67 7.66 16.34 8.32 16 9 C10.06 9 4.12 9 -2 9 C-2 8.67 -2 8.34 -2 8 C2.62 7.67 7.24 7.34 12 7 C11.01 6.34 10.02 5.68 9 5 C9 4.34 9 3.68 9 3 C4.545 2.01 4.545 2.01 0 1 C0 0.67 0 0.34 0 0 Z " fill="#686868" transform="translate(290,435)"/>
<path d="M0 0 C0 0.99 0 1.98 0 3 C0.66 3.33 1.32 3.66 2 4 C1.34 4.66 0.68 5.32 0 6 C-1.9375 5.625 -1.9375 5.625 -4 5 C-6.97722959 4.79581697 -6.97722959 4.79581697 -9.375 6.0625 C-12.39530346 7.14117981 -13.96213098 6.86796258 -17 6 C-13.9666221 3.97774806 -11.38655511 3.00652476 -7.9375 1.875 C-6.87402344 1.52179688 -5.81054688 1.16859375 -4.71484375 0.8046875 C-2 0 -2 0 0 0 Z " fill="#67CCFE" transform="translate(158,201)"/>
<path d="M0 0 C0 0.66 0 1.32 0 2 C-1.98 2.99 -1.98 2.99 -4 4 C-3.67 4.99 -3.34 5.98 -3 7 C-2.34 7.33 -1.68 7.66 -1 8 C-1 8.66 -1 9.32 -1 10 C-0.01 10 0.98 10 2 10 C4.10770759 12.88834003 5 14.38462395 5 18 C1.60580737 14.71529745 -1.61907735 11.29302848 -4.8125 7.8125 C-5.60269531 6.95269531 -6.39289063 6.09289062 -7.20703125 5.20703125 C-9 3 -9 3 -9 1 C-2.25 0 -2.25 0 0 0 Z " fill="#82DAFD" transform="translate(136,362)"/>
<path d="M0 0 C2.9667903 2.57360122 4.49144778 5.51704221 6.25 9 C6.79140625 10.051875 7.3328125 11.10375 7.890625 12.1875 C9 15 9 15 8 18 C7.34 18 6.68 18 6 18 C4.99095625 15.7536764 3.9926398 13.50356063 3 11.25 C2.71382813 10.61578125 2.42765625 9.9815625 2.1328125 9.328125 C0.63993298 5.91582896 0 3.79218083 0 0 Z " fill="#BEF3FE" transform="translate(395,196)"/>
<path d="M0 0 C1.58167969 0.09667969 1.58167969 0.09667969 3.1953125 0.1953125 C5.875 0.875 5.875 0.875 7.2421875 2.7421875 C7.875 4.875 7.875 4.875 7.875 7.875 C4.875 7.875 4.875 7.875 3.1875 6.5 C1.875 4.875 1.875 4.875 1.875 2.875 C-2.085 2.545 -6.045 2.215 -10.125 1.875 C-5.95034901 -0.21232549 -4.4945086 -0.34233358 0 0 Z " fill="#68C8F8" transform="translate(225.125,407.125)"/>
<path d="M0 0 C0.66 0.66 1.32 1.32 2 2 C-2.55067346 8.53642188 -7.1133675 14.61005211 -13 20 C-13.66 19.34 -14.32 18.68 -15 18 C-14.01 17.67 -13.02 17.34 -12 17 C-11.28733089 15.69067767 -10.62500711 14.35336186 -10 13 C-9.07744018 11.84548228 -8.11731384 10.72014429 -7.125 9.625 C-4.43087088 6.56769171 -2.18091609 3.43913691 0 0 Z " fill="#87FAFF" transform="translate(247,141)"/>
<path d="M0 0 C4 2 4 2 6 4 C6.66 4.33 7.32 4.66 8 5 C8.75 8.4375 8.75 8.4375 9 12 C8.34 12.66 7.68 13.32 7 14 C4.69 9.38 2.38 4.76 0 0 Z " fill="#9FE9FE" transform="translate(111,343)"/>
<path d="M0 0 C3.78487299 1.54520044 6.02199536 3.87062887 8.75 6.875 C9.54921875 7.73867187 10.3484375 8.60234375 11.171875 9.4921875 C13 12 13 12 13 16 C12.34 16 11.68 16 11 16 C10.443125 14.9275 9.88625 13.855 9.3125 12.75 C7.38409535 9.32172506 5.10680017 7.41640013 2 5 C2 4.01 2 3.02 2 2 C1.34 2 0.68 2 0 2 C0 1.34 0 0.68 0 0 Z " fill="#78DCFE" transform="translate(357,169)"/>
<path d="M0 0 C2.125 0.9375 2.125 0.9375 4 2 C4 3.98 4 5.96 4 8 C1 9 1 9 -2 8 C-2 5.69 -2 3.38 -2 1 C-1.34 0.67 -0.68 0.34 0 0 Z " fill="#9CD7F9" transform="translate(188,74)"/>
<path d="M0 0 C0.33 0 0.66 0 1 0 C1.66 5.28 2.32 10.56 3 16 C0.36 15.67 -2.28 15.34 -5 15 C-5 14.67 -5 14.34 -5 14 C-3.35 14 -1.7 14 0 14 C-0.08378906 13.07316406 -0.16757812 12.14632813 -0.25390625 11.19140625 C-0.40666016 9.39509766 -0.40666016 9.39509766 -0.5625 7.5625 C-0.71912109 5.77005859 -0.71912109 5.77005859 -0.87890625 3.94140625 C-0.91886719 2.97074219 -0.95882813 2.00007812 -1 1 C-0.67 0.67 -0.34 0.34 0 0 Z " fill="#68C4FD" transform="translate(398,249)"/>
<path d="M0 0 C0.66 0 1.32 0 2 0 C3.31855095 2.24664262 4.62993972 4.49697306 5.9375 6.75 C6.31068359 7.38421875 6.68386719 8.0184375 7.06835938 8.671875 C8.85536764 11.76291632 10.24885273 14.51467668 11 18 C6.19729683 13.76232074 2.83294528 8.74377221 0 3 C0 2.01 0 1.02 0 0 Z " fill="#AEF2FF" transform="translate(113,332)"/>
<path d="M0 0 C2.97569363 2.78809555 5.16048288 5.56414179 7.25 9.0625 C7.77078125 9.91972656 8.2915625 10.77695313 8.828125 11.66015625 C10 14 10 14 10 17 C9.34 17 8.68 17 8 17 C6.51925046 14.94241228 5.18523151 12.91211348 3.875 10.75 C3.31619141 9.87021484 3.31619141 9.87021484 2.74609375 8.97265625 C0.68518944 5.61330674 0 4.04528996 0 0 Z " fill="#74E8FF" transform="translate(147,233)"/>
<path d="M0 0 C0.99 0.66 1.98 1.32 3 2 C-2.61 4.64 -8.22 7.28 -14 10 C-14.33 9.34 -14.66 8.68 -15 8 C-10.05 5.36 -5.1 2.72 0 0 Z " fill="#65D9FF" transform="translate(137,166)"/>
<path d="M0 0 C3.66161578 1.22053859 4.16270474 2.36782304 6.1875 5.5625 C6.71730469 6.38878906 7.24710937 7.21507812 7.79296875 8.06640625 C8.19128906 8.70449219 8.58960937 9.34257812 9 10 C8.67 10.66 8.34 11.32 8 12 C4.38430095 9.36151691 1.97164786 7.04706667 0 3 C0 2.01 0 1.02 0 0 Z " fill="#69C5F6" transform="translate(119,355)"/>
<path d="M0 0 C0.66 0.66 1.32 1.32 2 2 C1.9765625 4.6015625 1.9765625 4.6015625 1.625 7.625 C1.51414063 8.62789062 1.40328125 9.63078125 1.2890625 10.6640625 C1.19367188 11.43492187 1.09828125 12.20578125 1 13 C0.01 13 -0.98 13 -2 13 C-2.05447047 11.58376784 -2.09300508 10.16691809 -2.125 8.75 C-2.14820313 7.96109375 -2.17140625 7.1721875 -2.1953125 6.359375 C-1.9828378 3.79268059 -1.28654105 2.2083933 0 0 Z " fill="#66D0FE" transform="translate(163,226)"/>
<path d="M0 0 C0.66 0 1.32 0 2 0 C1.48223379 4.10447392 -0.64627444 5.95699523 -3.5625 8.75 C-4.80193359 9.94882813 -4.80193359 9.94882813 -6.06640625 11.171875 C-6.70449219 11.77515625 -7.34257812 12.3784375 -8 13 C-8.66 12.67 -9.32 12.34 -10 12 C-9.52949219 11.46890625 -9.05898437 10.9378125 -8.57421875 10.390625 C-7.95160156 9.68421875 -7.32898438 8.9778125 -6.6875 8.25 C-6.07261719 7.55390625 -5.45773438 6.8578125 -4.82421875 6.140625 C-2.97083835 4.03021317 -2.97083835 4.03021317 -1.39453125 1.734375 C-0.93433594 1.16203125 -0.47414062 0.5896875 0 0 Z " fill="#064788" transform="translate(230,152)"/>
<path d="M0 0 C0 0.66 0 1.32 0 2 C-4.29 2 -8.58 2 -13 2 C-13.33 1.34 -13.66 0.68 -14 0 C-9.35601989 -1.54799337 -4.67482292 -1.49594333 0 0 Z " fill="#DEECE0" transform="translate(231,192)"/>
<path d="M0 0 C0.66 0 1.32 0 2 0 C3.905247 5.10334017 5.42589023 9.46342706 5 15 C4.01 14.67 3.02 14.34 2 14 C1.34 9.38 0.68 4.76 0 0 Z " fill="#63D4FE" transform="translate(191,179)"/>
<path d="M0 0 C3.27339298 5.67388117 3.68983358 12.56934802 3 19 C1.98828125 21.2734375 1.98828125 21.2734375 1 23 C-0.125 16.375 -0.125 16.375 1 13 C0.7834375 11.9171875 0.7834375 11.9171875 0.5625 10.8125 C-0.17118432 7.14407839 -0.06337948 3.73938954 0 0 Z " fill="#5BC6FC" transform="translate(110,136)"/>
<path d="M0 0 C1.64826111 2.96687001 2.44271087 5.65626525 3 9 C1.68 9 0.36 9 -1 9 C-1.99 6.69 -2.98 4.38 -4 2 C-2.68 1.34 -1.36 0.68 0 0 Z " fill="#C9FBFF" transform="translate(165,258)"/>
<path d="M0 0 C2.0622048 -0.054348 4.12482816 -0.09294961 6.1875 -0.125 C7.33605469 -0.14820313 8.48460937 -0.17140625 9.66796875 -0.1953125 C12.91740372 -0.00484152 15.08660521 0.60639873 18 2 C18 2.33 18 2.66 18 3 C15.56152549 2.88602456 13.12486826 2.75929026 10.6875 2.625 C9.65206055 2.57859375 9.65206055 2.57859375 8.59570312 2.53125 C4.93009211 2.31875081 3.12099208 2.08066139 0 0 Z " fill="#5BCEFE" transform="translate(128,159)"/>
<path d="M0 0 C0.80824219 0.19464844 1.61648438 0.38929688 2.44921875 0.58984375 C3.06410156 0.74582031 3.67898438 0.90179688 4.3125 1.0625 C3.3225 1.5575 3.3225 1.5575 2.3125 2.0625 C2.3125 2.7225 2.3125 3.3825 2.3125 4.0625 C-1 4.3125 -1 4.3125 -4.6875 4.0625 C-6.625 2.0625 -6.625 2.0625 -7.6875 0.0625 C-4.39053895 -1.03648702 -3.28255097 -0.80874444 0 0 Z " fill="#F0F4F4" transform="translate(493.6875,364.9375)"/>
<path d="M0 0 C2.06309376 0.11478413 4.12548354 0.24226198 6.1875 0.375 C7.33605469 0.44460937 8.48460938 0.51421875 9.66796875 0.5859375 C12.79959117 0.97509574 15.15285809 1.6809851 18 3 C18 3.33 18 3.66 18 4 C15.93690624 3.88521587 13.87451646 3.75773802 11.8125 3.625 C10.66394531 3.55539063 9.51539062 3.48578125 8.33203125 3.4140625 C5.20040883 3.02490426 2.84714191 2.3190149 0 1 C0 0.67 0 0.34 0 0 Z " fill="#60D7FE" transform="translate(108,118)"/>
<path d="M0 0 C4.21814817 3.9700218 7.61227103 8.30840284 11 13 C10.01 13 9.02 13 8 13 C3 7.65116279 3 7.65116279 3 5 C2.34 5 1.68 5 1 5 C0.67 3.35 0.34 1.7 0 0 Z " fill="#95E7FF" transform="translate(124,349)"/>
<path d="M0 0 C0.66 0 1.32 0 2 0 C2.99 4.95 3.98 9.9 5 15 C4.34 15 3.68 15 3 15 C1.094753 9.89665983 -0.42589023 5.53657294 0 0 Z " fill="#C7FEFF" transform="translate(98,286)"/>
<path d="M0 0 C1.46022163 0.95545366 2.91811468 1.91446678 4.375 2.875 C5.18710937 3.40867188 5.99921875 3.94234375 6.8359375 4.4921875 C9 6 9 6 11 8 C10.67 8.99 10.34 9.98 10 11 C8.72799029 9.89718873 7.45744147 8.79269231 6.1875 7.6875 C5.47980469 7.07261719 4.77210938 6.45773438 4.04296875 5.82421875 C2.29863261 4.26665665 0.63221959 2.67341125 -1 1 C-0.67 0.67 -0.34 0.34 0 0 Z " fill="#7DEAFF" transform="translate(332,146)"/>
<path d="M0 0 C0.66 1.32 1.32 2.64 2 4 C0.35 5.98 -1.3 7.96 -3 10 C-3.66 9.01 -4.32 8.02 -5 7 C-3.35 4.69 -1.7 2.38 0 0 Z " fill="#03376F" transform="translate(236,144)"/>
<path d="M0 0 C4.60853797 0.72008406 8.67237409 2.31295939 13 4 C10.42786866 5.61949011 9.32330841 6.04408751 6.25 5.625 C5.5075 5.41875 4.765 5.2125 4 5 C4 4.34 4 3.68 4 3 C2.68 2.34 1.36 1.68 0 1 C0 0.67 0 0.34 0 0 Z " fill="#5AD2FE" transform="translate(125,98)"/>
<path d="M0 0 C3.76687864 1.88343932 4.79421646 2.69132469 7 6 C5.68 6 4.36 6 3 6 C2.34 7.32 1.68 8.64 1 10 C0.67 6.7 0.34 3.4 0 0 Z " fill="#69CBFB" transform="translate(99,81)"/>
<path d="M0 0 C1.98 0.99 1.98 0.99 4 2 C4 2.66 4 3.32 4 4 C5.32 4 6.64 4 8 4 C8.33 4.66 8.66 5.32 9 6 C9.66 6 10.32 6 11 6 C11 6.66 11 7.32 11 8 C10.01 8.33 9.02 8.66 8 9 C5.95703125 7.63671875 5.95703125 7.63671875 3.8125 5.6875 C2.73935547 4.73423828 2.73935547 4.73423828 1.64453125 3.76171875 C0 2 0 2 0 0 Z " fill="#65C3F6" transform="translate(149,385)"/>
<path d="M0 0 C2.9375 1.625 2.9375 1.625 6 4 C6.875 7.25 6.875 7.25 7 10 C6.34 10 5.68 10 5 10 C3.7109375 8.57421875 3.7109375 8.57421875 2.375 6.6875 C1.92898437 6.07261719 1.48296875 5.45773437 1.0234375 4.82421875 C0 3 0 3 0 0 Z " fill="#90E0FE" transform="translate(120,352)"/>
<path d="M0 0 C1.98180213 1.79305907 3.20358221 3.3501614 4.5625 5.6875 C5.2740625 6.8321875 5.2740625 6.8321875 6 8 C6.66 8 7.32 8 8 8 C7.67 8.99 7.34 9.98 7 11 C6.01 11 5.02 11 4 11 C2.35 7.7 0.7 4.4 -1 1 C-0.67 0.67 -0.34 0.34 0 0 Z " fill="#9CE9FE" transform="translate(157,249)"/>
<path d="M0 0 C1.95901454 0.11382653 3.9172338 0.24141125 5.875 0.375 C6.96554687 0.44460937 8.05609375 0.51421875 9.1796875 0.5859375 C12 1 12 1 14 3 C10.78543644 4.03719328 8.59074417 3.94068337 5.3125 3.1875 C4.52488281 3.01605469 3.73726563 2.84460938 2.92578125 2.66796875 C1 2 1 2 0 0 Z " fill="#97F7FF" transform="translate(253,137)"/>
<path d="M0 0 C0.33 0 0.66 0 1 0 C1.66 3.63 2.32 7.26 3 11 C2.01 11.33 1.02 11.66 0 12 C-1.17661508 8.32307787 -1.14475933 4.8361222 -1 1 C-0.67 0.67 -0.34 0.34 0 0 Z " fill="#5BCCFE" transform="translate(396,238)"/>
<path d="M0 0 C2.475 0.99 2.475 0.99 5 2 C4.01 2.33 3.02 2.66 2 3 C0.89363605 5.39068734 0.89363605 5.39068734 0 8 C-0.66 8.99 -1.32 9.98 -2 11 C-1.85892253 9.54119891 -1.71197585 8.08296449 -1.5625 6.625 C-1.48128906 5.81289062 -1.40007812 5.00078125 -1.31640625 4.1640625 C-1 2 -1 2 0 0 Z " fill="#42A8E8" transform="translate(245,119)"/>
<path d="M0 0 C0.99 0 1.98 0 3 0 C2.25 2.4375 2.25 2.4375 1 5 C-0.9375 6 -0.9375 6 -3 6 C-4.75 4.5625 -4.75 4.5625 -6 3 C-5.34 2.34 -4.68 1.68 -4 1 C-3.34 1.66 -2.68 2.32 -2 3 C-1.34 2.34 -0.68 1.68 0 1 C0 0.67 0 0.34 0 0 Z " fill="#E1FEFF" transform="translate(190,82)"/>
<path d="M0 0 C0.66 0 1.32 0 2 0 C2.1953125 6.0546875 2.1953125 6.0546875 2 8 C1.34 8.66 0.68 9.32 0 10 C-0.66 9.67 -1.32 9.34 -2 9 C-1.34 6.03 -0.68 3.06 0 0 Z " fill="#DFE1DF" transform="translate(321,408)"/>
<path d="M0 0 C0 0.99 0 1.98 0 3 C0.66 3.33 1.32 3.66 2 4 C1.34 4.66 0.68 5.32 0 6 C-2.125 5.625 -2.125 5.625 -4 5 C-4 4.34 -4 3.68 -4 3 C-4.66 2.34 -5.32 1.68 -6 1 C-3.92446352 0.4465236 -2.15634036 0 0 0 Z " fill="#54C7FE" transform="translate(158,201)"/>
<path d="M0 0 C0.33 0 0.66 0 1 0 C1.36463732 1.74784829 1.7163078 3.49840502 2.0625 5.25 C2.25972656 6.22453125 2.45695312 7.1990625 2.66015625 8.203125 C2.98397535 10.868119 2.85503199 12.48871723 2 15 C-0.35119399 11.47320901 -0.21443452 9.97120515 -0.125 5.8125 C-0.10695313 4.72582031 -0.08890625 3.63914063 -0.0703125 2.51953125 C-0.04710938 1.68808594 -0.02390625 0.85664063 0 0 Z " fill="#88E4FF" transform="translate(109,138)"/>
<path d="M0 0 C2.64 0 5.28 0 8 0 C8.66 1.65 9.32 3.3 10 5 C8.68 4.67 7.36 4.34 6 4 C6 3.34 6 2.68 6 2 C4.02 2 2.04 2 0 2 C0 1.34 0 0.68 0 0 Z " fill="#5EC2FA" transform="translate(162,109)"/>
<path d="M0 0 C2.475 0.99 2.475 0.99 5 2 C5 2.99 5 3.98 5 5 C4.34 5.66 3.68 6.32 3 7 C2.01 6.34 1.02 5.68 0 5 C0 3.33333333 0 1.66666667 0 0 Z " fill="#50ABDC" transform="translate(163,389)"/>
<path d="M0 0 C0.66 0 1.32 0 2 0 C2.66 2.97 3.32 5.94 4 9 C3.01 9 2.02 9 1 9 C0.67 6.03 0.34 3.06 0 0 Z " fill="#ECF8FB" transform="translate(408,239)"/>
<path d="M0 0 C0 0.66 0 1.32 0 2 C-2.97 3.32 -5.94 4.64 -9 6 C-9.33 5.01 -9.66 4.02 -10 3 C-3.375 0 -3.375 0 0 0 Z " fill="#74E8FF" transform="translate(143,207)"/>
<path d="M0 0 C0.66 0.33 1.32 0.66 2 1 C2.4140625 3.06640625 2.4140625 3.06640625 2.625 5.5625 C2.69976562 6.38878906 2.77453125 7.21507812 2.8515625 8.06640625 C2.92503906 9.02353516 2.92503906 9.02353516 3 10 C2.01 9.67 1.02 9.34 0 9 C-0.87890625 2.84765625 -0.87890625 2.84765625 -1 1 C-0.67 0.67 -0.34 0.34 0 0 Z " fill="#69D0FE" transform="translate(155,129)"/>
<path d="M0 0 C0.99 0.33 1.98 0.66 3 1 C4.6875 4.5625 4.6875 4.5625 6 8 C3.5625 7.375 3.5625 7.375 1 6 C0.1875 2.875 0.1875 2.875 0 0 Z " fill="#CFFEFE" transform="translate(94,69)"/>
<path d="M0 0 C2.56687367 3.8503105 1.83288724 5.58569763 1 10 C-0.9451 7.08235 -1.45276317 5.37462715 -2 2 C-1.34 2 -0.68 2 0 2 C0 1.34 0 0.68 0 0 Z " fill="#B2F2FE" transform="translate(105,321)"/>
<path d="M0 0 C0.33 0.66 0.66 1.32 1 2 C1.66 2 2.32 2 3 2 C3.66 4.64 4.32 7.28 5 10 C4.01 10 3.02 10 2 10 C0.68373308 6.38026598 0 3.90432869 0 0 Z " fill="#BDF9FF" transform="translate(103,308)"/>
<path d="M0 0 C1 2 2 4 3 6 C5.02463255 6.65213292 5.02463255 6.65213292 7 7 C7 7.66 7 8.32 7 9 C4.625 9.125 4.625 9.125 2 9 C0 7 0 7 -0.125 3.375 C-0.08375 2.26125 -0.0425 1.1475 0 0 Z " fill="#90D7FE" transform="translate(373,255)"/>
<path d="M0 0 C2 1 2 1 3.125 4.3125 C4 8 4 8 4 12 C3.34 12 2.68 12 2 12 C1.34 8.04 0.68 4.08 0 0 Z " fill="#78DAFE" transform="translate(200,156)"/>
<path d="M0 0 C9.09677419 0.90967742 9.09677419 0.90967742 12 3 C12.33 3.99 12.66 4.98 13 6 C8.52761347 4.58192622 4.28853694 2.88695626 0 1 C0 0.67 0 0.34 0 0 Z " fill="#5ECAFB" transform="translate(288,146)"/>
<path d="M0 0 C0.66 0.33 1.32 0.66 2 1 C1.34 4.63 0.68 8.26 0 12 C-0.33 12 -0.66 12 -1 12 C-1 10.35 -1 8.7 -1 7 C-1.66 7 -2.32 7 -3 7 C-1.125 2.25 -1.125 2.25 0 0 Z " fill="#083C74" transform="translate(247,122)"/>
<path d="M0 0 C1.32 0.33 2.64 0.66 4 1 C2.9024777 3.99324263 2.32317108 4.84610901 -0.625 6.25 C-1.40875 6.4975 -2.1925 6.745 -3 7 C-2.67 5.68 -2.34 4.36 -2 3 C-1.34 3 -0.68 3 0 3 C0 2.01 0 1.02 0 0 Z " fill="#56C2FD" transform="translate(252,120)"/>
<path d="M0 0 C1.34173403 0.92543709 2.67320159 1.86577405 4 2.8125 C5.11375 3.59560547 5.11375 3.59560547 6.25 4.39453125 C6.8275 4.92433594 7.405 5.45414062 8 6 C8 6.99 8 7.98 8 9 C3.71675909 6.48592381 1.35468295 4.87685861 0 0 Z " fill="#7DE7FE" transform="translate(104,83)"/>
<path d="M0 0 C1.17539996 0.92652701 2.34010577 1.86663387 3.5 2.8125 C4.1496875 3.33457031 4.799375 3.85664063 5.46875 4.39453125 C7 6 7 6 7 9 C5.82460004 8.07347299 4.65989423 7.13336613 3.5 6.1875 C2.52546875 5.40439453 2.52546875 5.40439453 1.53125 4.60546875 C0 3 0 3 0 0 Z " fill="#64D5FE" transform="translate(136,363)"/>
<path d="M0 0 C3.465 1.98 3.465 1.98 7 4 C7 4.99 7 5.98 7 7 C6.01 7.33 5.02 7.66 4 8 C4 7.01 4 6.02 4 5 C2.68 4.34 1.36 3.68 0 3 C0 2.01 0 1.02 0 0 Z " fill="#6CCEFE" transform="translate(245,116)"/>
<path d="M0 0 C0.66 0.33 1.32 0.66 2 1 C2 1.99 2 2.98 2 4 C-0.31 4.33 -2.62 4.66 -5 5 C-5 4.34 -5 3.68 -5 3 C-2.625 1.3125 -2.625 1.3125 0 0 Z " fill="#DBE9E3" transform="translate(311,426)"/>
<path d="M0 0 C1.65 0 3.3 0 5 0 C6.0625 1.8125 6.0625 1.8125 7 4 C6.67 4.99 6.34 5.98 6 7 C4.02 4.69 2.04 2.38 0 0 Z " fill="#E9EAE4" transform="translate(315,389)"/>
<path d="M0 0 C0.66 0 1.32 0 2 0 C2.84098656 4.01804691 3.05404945 7.01803543 2 11 C0.11772118 7.73738338 -0.58481145 4.73669693 -1 1 C-0.67 0.67 -0.34 0.34 0 0 Z " fill="#ADFBFF" transform="translate(97,298)"/>
<path d="M0 0 C0.33 0.99 0.66 1.98 1 3 C-1.8125 5.0625 -1.8125 5.0625 -5 7 C-5.99 6.67 -6.98 6.34 -8 6 C-5.36 4.02 -2.72 2.04 0 0 Z " fill="#83E7FF" transform="translate(194,192)"/>
<path d="M0 0 C0.66 0 1.32 0 2 0 C2.66 2.97 3.32 5.94 4 9 C3.01 9 2.02 9 1 9 C0.67 6.03 0.34 3.06 0 0 Z " fill="#70D1FE" transform="translate(121,175)"/>
<path d="M0 0 C0.66 0.66 1.32 1.32 2 2 C0.02 2.99 0.02 2.99 -2 4 C-2 4.66 -2 5.32 -2 6 C-2.66 6 -3.32 6 -4 6 C-4.33 6.99 -4.66 7.98 -5 9 C-5.33 8.01 -5.66 7.02 -6 6 C-4.02 4.02 -2.04 2.04 0 0 Z " fill="#B6FEFF" transform="translate(232,160)"/>
<path d="M0 0 C-0.639375 0.268125 -1.27875 0.53625 -1.9375 0.8125 C-4.33131686 1.88667752 -4.33131686 1.88667752 -5 5 C-5.66 5 -6.32 5 -7 5 C-7.33 3.35 -7.66 1.7 -8 0 C-5.13822943 -1.43088528 -3.06624227 -0.59991697 0 0 Z " fill="#87E9FF" transform="translate(193,108)"/>
<path d="M0 0 C0.66 0.33 1.32 0.66 2 1 C1.67 2.98 1.34 4.96 1 7 C0.01 7 -0.98 7 -2 7 C-1.34 4.69 -0.68 2.38 0 0 Z " fill="#CAEEF5" transform="translate(101,225)"/>
<path d="M0 0 C0.99 0.33 1.98 0.66 3 1 C3 1.66 3 2.32 3 3 C3.639375 3.28875 4.27875 3.5775 4.9375 3.875 C7 5 7 5 8 7 C4.00499382 5.6302836 1.19990508 3.74277578 -2 1 C-1.34 0.67 -0.68 0.34 0 0 Z " fill="#5BC8FC" transform="translate(306,153)"/>
<path d="M0 0 C2.475 0.99 2.475 0.99 5 2 C3.35 3.32 1.7 4.64 0 6 C-0.66 5.34 -1.32 4.68 -2 4 C-1.34 2.68 -0.68 1.36 0 0 Z " fill="#67DFFF" transform="translate(249,136)"/>
<path d="M0 0 C1.06546953 3.1964086 1.07427838 5.65747276 1 9 C0.01 9.495 0.01 9.495 -1 10 C-1.9765625 3.9453125 -1.9765625 3.9453125 -2 2 C-1.34 1.34 -0.68 0.68 0 0 Z " fill="#50B2F3" transform="translate(140,132)"/>
<path d="M0 0 C2.64 0.33 5.28 0.66 8 1 C7.67 1.66 7.34 2.32 7 3 C4.03 3 1.06 3 -2 3 C-1.34 2.01 -0.68 1.02 0 0 Z " fill="#6CE1FF" transform="translate(256,120)"/>
<path d="M0 0 C3.63 0.66 7.26 1.32 11 2 C11 2.33 11 2.66 11 3 C10.071875 2.95875 9.14375 2.9175 8.1875 2.875 C4.84190281 2.72863661 4.84190281 2.72863661 2 5 C1.34 3.35 0.68 1.7 0 0 Z " fill="#53BEFC" transform="translate(141,105)"/>
<path d="M0 0 C2.475 0.495 2.475 0.495 5 1 C5.33 2.32 5.66 3.64 6 5 C4.125 4.75 4.125 4.75 2 4 C0.75 1.9375 0.75 1.9375 0 0 Z " fill="#CFD1C1" transform="translate(313,385)"/>
<path d="M0 0 C1.0625 1.8125 1.0625 1.8125 2 4 C1.67 4.99 1.34 5.98 1 7 C-1.31 6.67 -3.62 6.34 -6 6 C-6 5.67 -6 5.34 -6 5 C-4.35 5 -2.7 5 -1 5 C-0.67 3.35 -0.34 1.7 0 0 Z " fill="#65B4F6" transform="translate(399,258)"/>
<path d="M0 0 C0 0.66 0 1.32 0 2 C0.66 2.33 1.32 2.66 2 3 C-1.63 2.67 -5.26 2.34 -9 2 C-9 1.67 -9 1.34 -9 1 C-2.25 0 -2.25 0 0 0 Z " fill="#63B7E2" transform="translate(226,420)"/>
<path d="M0 0 C0.99 0 1.98 0 3 0 C3.66 1.98 4.32 3.96 5 6 C4.01 6.495 4.01 6.495 3 7 C2.01 4.69 1.02 2.38 0 0 Z " fill="#A2E0FF" transform="translate(109,326)"/>
<path d="M0 0 C2.45484649 2.13464912 3.68134222 3.70720291 4 7 C3.34 7.66 2.68 8.32 2 9 C0.50178941 5.62902617 0 3.79557881 0 0 Z " fill="#82D8FF" transform="translate(395,196)"/>
<path d="M0 0 C-2.35968744 2.09749995 -3.54616994 2.96905704 -6.75 3.1875 C-7.86375 3.0946875 -7.86375 3.0946875 -9 3 C-9.33 2.34 -9.66 1.68 -10 1 C-6.52674819 -0.1577506 -3.63932552 -0.06866652 0 0 Z " fill="#F0F9FB" transform="translate(227,191)"/>
<path d="M0 0 C0.99 0.33 1.98 0.66 3 1 C-0.75 6.875 -0.75 6.875 -3 8 C-2.690625 7.236875 -2.38125 6.47375 -2.0625 5.6875 C-1.32106407 3.81210323 -0.63771783 1.91315348 0 0 Z " fill="#2F92E3" transform="translate(219,161)"/>
<path d="M0 0 C0.66 0.33 1.32 0.66 2 1 C2 1.99 2 2.98 2 4 C1.01 4.66 0.02 5.32 -1 6 C-1.625 4.125 -1.625 4.125 -2 2 C-1.34 1.34 -0.68 0.68 0 0 Z " fill="#6EE3FC" transform="translate(238,148)"/>
</svg>
